<svg width="24" height="24" viewBox="0 0 24 24" fill="none" xmlns="http://www.w3.org/2000/svg">
<path d="M9.33401 10.8621C9.74464 10.4749 10.227 10.1814 10.7506 10C10.9003 10.1974 11.0904 10.3568 11.3067 10.4663C11.523 10.5757 11.76 10.6325 12 10.6323C12.24 10.6325 12.477 10.5757 12.6933 10.4663C12.9096 10.3568 13.0997 10.1974 13.2494 10C13.7731 10.1814 14.2554 10.4749 14.666 10.8621C14.5786 11.0972 14.5427 11.3499 14.5608 11.6016C14.579 11.8533 14.6507 12.0975 14.7708 12.316C14.8906 12.535 15.0558 12.7226 15.2541 12.8651C15.4523 13.0076 15.6785 13.1012 15.9158 13.139C16.0281 13.7068 16.0281 14.2928 15.9158 14.8606C15.4519 14.9355 15.024 15.2226 14.7708 15.6836C14.6507 15.9021 14.5789 16.1464 14.5607 16.3981C14.5426 16.6499 14.5786 16.9028 14.666 17.1379C14.2554 17.5249 13.7731 17.8183 13.2494 17.9996C13.0997 17.8022 12.9096 17.6429 12.6933 17.5335C12.477 17.4242 12.24 17.3675 12 17.3677C11.76 17.3675 11.523 17.4243 11.3067 17.5337C11.0904 17.6432 10.9003 17.8026 10.7506 18C10.227 17.8187 9.74468 17.5253 9.33401 17.1383C9.42146 16.9032 9.45745 16.6504 9.43931 16.3986C9.42117 16.1468 9.34936 15.9025 9.22923 15.684C9.10936 15.4651 8.94417 15.2775 8.74593 15.1351C8.54769 14.9927 8.32151 14.8992 8.08419 14.8615C7.97194 14.2935 7.97194 13.7073 8.08419 13.1394C8.32154 13.1016 8.54775 13.008 8.74599 12.8655C8.94423 12.7231 9.1094 12.5354 9.22923 12.3164C9.3493 12.0979 9.42107 11.8538 9.43921 11.6021C9.45735 11.3504 9.4214 11.0976 9.33401 10.8625V10.8621ZM12.5999 15.0934C12.7375 15.0111 12.8582 14.9009 12.9552 14.7693C13.0521 14.6377 13.1234 14.4872 13.1648 14.3265C13.2063 14.1657 13.2171 13.998 13.1967 13.8328C13.1763 13.6677 13.1251 13.5084 13.046 13.3642C12.9669 13.2199 12.8614 13.0936 12.7357 12.9925C12.61 12.8913 12.4666 12.8173 12.3136 12.7747C12.1606 12.7322 12.0011 12.7219 11.8444 12.7444C11.6876 12.767 11.5366 12.822 11.4001 12.9062C11.1268 13.0748 10.9279 13.3504 10.8469 13.6728C10.766 13.9952 10.8094 14.3382 10.9678 14.627C11.1263 14.9158 11.3868 15.1269 11.6925 15.2143C11.9983 15.3017 12.3245 15.2582 12.5999 15.0934V15.0934Z" fill="white"/>
<path fill-rule="evenodd" clip-rule="evenodd" d="M2.00004 3.9993C2.00004 2.89473 2.89547 2 4.00004 2L20 2C21.1046 2 22 2.89422 22 3.99879C22 9.23337 22 16.5298 22 20.0057C22 21.1103 21.1045 22 19.9999 22C14.3078 22 9.69216 22 4.00009 22C2.89553 22 2.00001 21.1046 2.00001 20V20C2.00001 20 2.00003 10.9296 2.00004 3.9993ZM20 9C20 7.89543 19.1046 7 18 7H6.00001C4.89544 7 4.00001 7.89543 4.00001 9V18C4.00001 19.1046 4.89544 20 6.00001 20H18C19.1046 20 20 19.1046 20 18V9ZM11 4C11.5523 4 12 4.44771 12 5V5C12 5.55228 11.5523 6 11 6V6C10.4477 6 10 5.55228 10 5V5C10 4.44771 10.4477 4 11 4V4ZM8.00001 4C8.55229 4 9.00001 4.44771 9.00001 5V5C9.00001 5.55228 8.55229 6 8.00001 6V6C7.44772 6 7.00001 5.55228 7.00001 5V5C7.00001 4.44771 7.44772 4 8.00001 4V4ZM5.00001 4C5.55229 4 6.00001 4.44771 6.00001 5V5C6.00001 5.55228 5.55229 6 5.00001 6V6C4.44772 6 4.00001 5.55228 4.00001 5V5C4.00001 4.44771 4.44772 4 5.00001 4V4Z" fill="white"/>
</svg>
