<svg width="24" height="24" viewBox="0 0 24 24" fill="none" xmlns="http://www.w3.org/2000/svg">
<path d="M14 13V11L12 12L10 11V13L8 14L10 15V17L12 16L14 17V15L16 14L14 13ZM14 2H7C6.46957 2 5.96086 2.21071 5.58579 2.58579C5.21071 2.96086 5 3.46957 5 4V18C5 18.5304 5.21071 19.0391 5.58579 19.4142C5.96086 19.7893 6.46957 20 7 20H8V18H7V4H13V6C13 7.10457 13.8954 8 15 8H17V18H16V20H17C17.5304 20 18.0391 19.7893 18.4142 19.4142C18.7893 19.0391 19 18.5304 19 18V7L14 2ZM14 13V11L12 12L10 11V13L8 14L10 15V17L12 16L14 17V15L16 14L14 13ZM10 23L12 22L14 23V18H10V23ZM14 13V11L12 12L10 11V13L8 14L10 15V17L12 16L14 17V15L16 14L14 13Z" fill="#374047"/>
</svg>
