<svg width="24" height="24" viewBox="0 0 24 24" fill="none" xmlns="http://www.w3.org/2000/svg">
<path fill-rule="evenodd" clip-rule="evenodd" d="M2.00001 3.99931C2.00001 2.89474 2.89544 2.00001 4.00001 2.00001L20 2.00001C21.1045 2.00001 22 2.89423 22 3.9988C22 9.23338 22 16.5298 22 20.0057C22 21.1103 21.1044 22 19.9999 22C14.3078 22 9.69213 22 4.00006 22C2.8955 22 1.99998 21.1046 1.99998 20V20C1.99998 20 1.99999 10.9296 2.00001 3.99931ZM20 9.00001C20 7.89544 19.1045 7.00001 18 7.00001H5.99998C4.89541 7.00001 3.99998 7.89544 3.99998 9.00001V18C3.99998 19.1046 4.89541 20 5.99998 20H18C19.1045 20 20 19.1046 20 18V9.00001ZM11 4.00001C11.5523 4.00001 12 4.44772 12 5.00001V5.00001C12 5.55229 11.5523 6.00001 11 6.00001V6.00001C10.4477 6.00001 9.99998 5.55229 9.99998 5.00001V5.00001C9.99998 4.44772 10.4477 4.00001 11 4.00001V4.00001ZM7.99998 4.00001C8.55226 4.00001 8.99998 4.44772 8.99998 5.00001V5.00001C8.99998 5.55229 8.55226 6.00001 7.99998 6.00001V6.00001C7.44769 6.00001 6.99998 5.55229 6.99998 5.00001V5.00001C6.99998 4.44772 7.44769 4.00001 7.99998 4.00001V4.00001ZM4.99998 4.00001C5.55226 4.00001 5.99998 4.44772 5.99998 5.00001V5.00001C5.99998 5.55229 5.55226 6.00001 4.99998 6.00001V6.00001C4.44769 6.00001 3.99998 5.55229 3.99998 5.00001V5.00001C3.99998 4.44772 4.44769 4.00001 4.99998 4.00001V4.00001Z" fill="#374047"/>
<rect x="5.99997" y="13" width="5" height="2" rx="1" fill="#374047"/>
<rect x="5.99997" y="16" width="5" height="2" rx="1" fill="#374047"/>
<rect x="13" y="16" width="5" height="2" rx="1" fill="#374047"/>
<rect x="13" y="13" width="5" height="2" rx="1" fill="#374047"/>
<rect x="5.99997" y="9.00001" width="12" height="3" rx="1.5" fill="#374047"/>
</svg>
