<svg width="24" height="24" viewBox="0 0 24 24" fill="none" xmlns="http://www.w3.org/2000/svg">
<path d="M18.75 3H5.25C4.00736 3 3 4.00736 3 5.25V18.75C3 19.9926 4.00736 21 5.25 21H18.75C19.9926 21 21 19.9926 21 18.75V5.25C21 4.00736 19.9926 3 18.75 3Z" stroke="#374047" stroke-width="2" stroke-linecap="round" stroke-linejoin="round"/>
<path d="M8 11V16" stroke="#374047" stroke-width="2" stroke-linecap="round" stroke-linejoin="round"/>
<path d="M8 8V8.01" stroke="#374047" stroke-width="2" stroke-linecap="round" stroke-linejoin="round"/>
<path d="M12 16V11" stroke="#374047" stroke-width="2" stroke-linecap="round" stroke-linejoin="round"/>
<path d="M16 16V13C16 12.4696 15.7893 11.9609 15.4142 11.5858C15.0391 11.2107 14.5304 11 14 11C13.4696 11 12.9609 11.2107 12.5858 11.5858C12.2107 11.9609 12 12.4696 12 13" stroke="#374047" stroke-width="2" stroke-linecap="round" stroke-linejoin="round"/>
</svg>
