<svg width="24" height="24" viewBox="0 0 24 24" fill="none" xmlns="http://www.w3.org/2000/svg">
<path d="M8.62603 3.62248C8.11373 3.82878 7.86566 4.41132 8.07196 4.92363C8.27825 5.43594 8.8608 5.68401 9.37311 5.47771L8.62603 3.62248ZM14.626 18.5225C14.1137 18.7288 13.8657 19.3113 14.072 19.8236C14.2783 20.3359 14.8608 20.584 15.3731 20.3777L14.626 18.5225ZM15.9996 15.0001C15.9996 14.4478 15.5519 14.0001 14.9996 14.0001C14.4473 14.0001 13.9996 14.4478 13.9996 15.0001H15.9996ZM14.9996 20.0001H13.9996C13.9996 20.5524 14.4473 21.0001 14.9996 21.0001V20.0001ZM19.9996 21.0001C20.5519 21.0001 20.9996 20.5524 20.9996 20.0001C20.9996 19.4478 20.5519 19.0001 19.9996 19.0001V21.0001ZM6.62957 7.15991C6.62957 6.60763 6.18186 6.15991 5.62957 6.15991C5.07729 6.15991 4.62957 6.60763 4.62957 7.15991H6.62957ZM4.62957 7.16991C4.62957 7.7222 5.07729 8.16991 5.62957 8.16991C6.18186 8.16991 6.62957 7.7222 6.62957 7.16991H4.62957ZM5.05957 11C5.05957 10.4477 4.61186 10 4.05957 10C3.50729 10 3.05957 10.4477 3.05957 11H5.05957ZM3.05957 11.01C3.05957 11.5623 3.50729 12.01 4.05957 12.01C4.61186 12.01 5.05957 11.5623 5.05957 11.01H3.05957ZM5.62957 15.1001C5.62957 14.5478 5.18186 14.1001 4.62957 14.1001C4.07729 14.1001 3.62957 14.5478 3.62957 15.1001H5.62957ZM3.62957 15.1101C3.62957 15.6624 4.07729 16.1101 4.62957 16.1101C5.18186 16.1101 5.62957 15.6624 5.62957 15.1101H3.62957ZM8.15957 18.3701C8.15957 17.8178 7.71186 17.3701 7.15957 17.3701C6.60729 17.3701 6.15957 17.8178 6.15957 18.3701H8.15957ZM6.15957 18.3801C6.15957 18.9324 6.60729 19.3801 7.15957 19.3801C7.71186 19.3801 8.15957 18.9324 8.15957 18.3801H6.15957ZM11.9996 19.9399C11.9996 19.3877 11.5519 18.9399 10.9996 18.9399C10.4473 18.9399 9.99957 19.3877 9.99957 19.9399H11.9996ZM9.99957 19.9499C9.99957 20.5022 10.4473 20.9499 10.9996 20.9499C11.5519 20.9499 11.9996 20.5022 11.9996 19.9499H9.99957ZM9.37311 5.47771C11.103 4.78113 13.0387 4.80026 14.7544 5.53088L15.538 3.69078C13.3342 2.75233 10.8479 2.72776 8.62603 3.62248L9.37311 5.47771ZM14.7544 5.53088C16.4701 6.26151 17.8254 7.64379 18.522 9.37363L20.3772 8.62656C19.4825 6.40468 17.7418 4.62922 15.538 3.69078L14.7544 5.53088ZM18.522 9.37363C19.2185 11.1035 19.1994 13.0392 18.4688 14.7549L20.3089 15.5385C21.2473 13.3347 21.2719 10.8484 20.3772 8.62656L18.522 9.37363ZM18.4688 14.7549C17.7382 16.4707 16.3559 17.8259 14.626 18.5225L15.3731 20.3777C17.595 19.483 19.3704 17.7423 20.3089 15.5385L18.4688 14.7549ZM13.9996 15.0001V20.0001H15.9996V15.0001H13.9996ZM14.9996 21.0001H19.9996V19.0001H14.9996V21.0001ZM4.62957 7.15991V7.16991H6.62957V7.15991H4.62957ZM3.05957 11V11.01H5.05957V11H3.05957ZM3.62957 15.1001V15.1101H5.62957V15.1001H3.62957ZM6.15957 18.3701V18.3801H8.15957V18.3701H6.15957ZM9.99957 19.9399V19.9499H11.9996V19.9399H9.99957Z" fill="#374047"/>
</svg>
