<svg width="24" height="24" viewBox="0 0 24 24" fill="none" xmlns="http://www.w3.org/2000/svg">
<mask id="path-1-inside-1_2220_2283" fill="white">
<rect x="5" y="5" width="14" height="14" rx="1"/>
</mask>
<rect x="5" y="5" width="14" height="14" rx="1" stroke="white" stroke-width="4" mask="url(#path-1-inside-1_2220_2283)"/>
<mask id="path-2-inside-2_2220_2283" fill="white">
<rect x="9" y="9" width="6" height="6" rx="1"/>
</mask>
<rect x="9" y="9" width="6" height="6" rx="1" stroke="white" stroke-width="4" mask="url(#path-2-inside-2_2220_2283)"/>
<path d="M19 7H21C21.5523 7 22 7.44772 22 8V8C22 8.55228 21.5523 9 21 9H19V7Z" fill="white"/>
<path d="M19 11H21C21.5523 11 22 11.4477 22 12V12C22 12.5523 21.5523 13 21 13H19V11Z" fill="white"/>
<path d="M19 15H21C21.5523 15 22 15.4477 22 16V16C22 16.5523 21.5523 17 21 17H19V15Z" fill="white"/>
<path d="M2 16C2 15.4477 2.44772 15 3 15H5V17H3C2.44772 17 2 16.5523 2 16V16Z" fill="white"/>
<path d="M2 12C2 11.4477 2.44772 11 3 11H5V13H3C2.44772 13 2 12.5523 2 12V12Z" fill="white"/>
<path d="M2 8C2 7.44772 2.44772 7 3 7H5V9H3C2.44772 9 2 8.55228 2 8V8Z" fill="white"/>
<path d="M7 3C7 2.44772 7.44772 2 8 2V2C8.55228 2 9 2.44772 9 3V5H7V3Z" fill="white"/>
<path d="M11 3C11 2.44772 11.4477 2 12 2V2C12.5523 2 13 2.44772 13 3V5H11V3Z" fill="white"/>
<path d="M15 3C15 2.44772 15.4477 2 16 2V2C16.5523 2 17 2.44772 17 3V5H15V3Z" fill="white"/>
<path d="M7 19H9V21C9 21.5523 8.55228 22 8 22V22C7.44772 22 7 21.5523 7 21V19Z" fill="white"/>
<path d="M11 19H13V21C13 21.5523 12.5523 22 12 22V22C11.4477 22 11 21.5523 11 21V19Z" fill="white"/>
<path d="M15 19H17V21C17 21.5523 16.5523 22 16 22V22C15.4477 22 15 21.5523 15 21V19Z" fill="white"/>
</svg>
