<svg width="24" height="24" viewBox="0 0 24 24" fill="none" xmlns="http://www.w3.org/2000/svg">
<path d="M21.0056 16.3239C20.5755 15.8917 20.034 15.5874 19.4413 15.4451C19.2499 15.3991 19.0557 15.3706 18.8609 15.3595C18.108 15.3164 17.3127 15.1814 16.7796 14.648L9.36456 7.22774C8.82354 6.68634 8.69801 5.87398 8.6439 5.11051C8.51063 3.2301 6.67767 1.64206 4.69293 2.07049C4.60967 2.08793 4.53581 2.1356 4.48558 2.20431C4.43536 2.27302 4.41233 2.3579 4.42094 2.44259C4.43127 2.52074 4.46486 2.59397 4.51735 2.65276L5.35392 3.48992C5.68794 3.82417 5.81605 4.31242 5.68916 4.7676V4.7676C5.56466 5.2142 5.20919 5.56284 4.76127 5.68251V5.68251C4.30403 5.80467 3.81207 5.67486 3.47752 5.34008L2.64095 4.50291C2.56623 4.44276 2.47148 4.41321 2.37584 4.42023C2.30298 4.42746 2.23432 4.45775 2.17984 4.5067C2.12535 4.55564 2.08788 4.6207 2.07286 4.69241C1.63527 6.67003 3.23488 8.51097 5.10059 8.65184C5.87293 8.71015 6.69827 8.83208 7.24555 9.38015L14.6257 16.771C15.167 17.3131 15.2918 18.1264 15.3458 18.8906C15.4786 20.7705 17.3136 22.3579 19.2979 21.9295C19.3812 21.9121 19.455 21.8644 19.5052 21.7957C19.5555 21.727 19.5785 21.6421 19.5699 21.5574C19.5596 21.4793 19.526 21.406 19.4735 21.3472L18.6369 20.5101C18.3029 20.1758 18.1748 19.6876 18.3017 19.2324V19.2324C18.4262 18.7858 18.7816 18.4372 19.2296 18.3175V18.3175C19.6868 18.1953 20.1788 18.3251 20.5133 18.6599L21.3499 19.4971C21.4189 19.5557 21.5042 19.5917 21.5943 19.6004C21.6754 19.6019 21.7543 19.5747 21.8173 19.5237C21.8803 19.4726 21.9232 19.401 21.9386 19.3214C22.0437 18.7835 22.0135 18.2279 21.8506 17.7047C21.6877 17.1814 21.3973 16.7069 21.0056 16.3239Z" fill="white"/>
<path d="M13.7417 8.173C13.1892 8.75649 13.2045 9.67458 13.7761 10.2394V10.2394C14.3457 10.8022 15.2601 10.8086 15.8376 10.2538L16.6548 9.46879C17.2007 8.94435 18.0044 8.83096 18.7602 8.78797C20.688 8.67831 22.3418 6.78895 21.8939 4.76473C21.8789 4.69302 21.8414 4.62797 21.7869 4.57902C21.7324 4.53008 21.6638 4.49979 21.5909 4.49255C21.5403 4.48914 21.4896 4.49592 21.4417 4.51249C21.3938 4.52906 21.3497 4.55509 21.312 4.58902L20.4882 5.41344C20.1458 5.75604 19.6423 5.88861 19.1746 5.763V5.763C18.7179 5.64037 18.3556 5.28486 18.2281 4.8295V4.8295C18.0978 4.36381 18.2286 3.86401 18.5705 3.52194L19.3943 2.69752C19.4283 2.66 19.4541 2.61581 19.4701 2.56777C19.4861 2.51972 19.492 2.46887 19.4873 2.41845C19.485 2.34329 19.4581 2.27095 19.4109 2.21248C19.3636 2.154 19.2986 2.1126 19.2256 2.09459C17.1834 1.65381 15.3147 3.31258 15.2124 5.24178C15.1728 5.98818 15.0606 6.77997 14.5467 7.32273L13.7417 8.173Z" fill="white"/>
<path d="M10.234 13.7669C9.67034 13.2028 8.75952 13.1915 8.18207 13.7416L7.1017 14.7706C6.58104 15.2665 5.82878 15.3906 5.11071 15.428C2.51649 15.563 0.907956 18.877 2.99902 21.0027C5.08989 23.1282 8.43666 21.4941 8.57448 18.8917C8.6126 18.172 8.73584 17.4172 9.23291 16.8953L10.2588 15.818C10.8084 15.2408 10.7974 14.3306 10.234 13.7669V13.7669ZM5.25 17C6.2165 17 7 17.7835 7 18.75V18.75C7 19.7165 6.2165 20.5 5.25 20.5V20.5C4.2835 20.5 3.5 19.7165 3.5 18.75V18.75C3.5 17.7835 4.2835 17 5.25 17V17Z" fill="white"/>
</svg>
