<svg width="24" height="24" viewBox="0 0 24 24" fill="none" xmlns="http://www.w3.org/2000/svg">
<path d="M19 8H5C3.89543 8 3 8.82655 3 9.84615V18.1538C3 19.1734 3.89543 20 5 20H19C20.1046 20 21 19.1734 21 18.1538V9.84615C21 8.82655 20.1046 8 19 8Z" stroke="#374047" stroke-width="2" stroke-linecap="round" stroke-linejoin="round"/>
<path d="M8 8V6C8 5.46957 8.21071 4.96086 8.58579 4.58579C8.96086 4.21071 9.46957 4 10 4H14C14.5304 4 15.0391 4.21071 15.4142 4.58579C15.7893 4.96086 16 5.46957 16 6V8" stroke="#374047" stroke-width="2" stroke-linecap="round" stroke-linejoin="round"/>
<path d="M12 12V12.01" stroke="#374047" stroke-width="2" stroke-linecap="round" stroke-linejoin="round"/>
<path d="M3 13C5.79158 14.4067 8.87403 15.1394 12 15.1394C15.126 15.1394 18.2084 14.4067 21 13" stroke="#374047" stroke-width="2" stroke-linecap="round" stroke-linejoin="round"/>
</svg>
