<svg width="24" height="24" viewBox="0 0 24 24" fill="none" xmlns="http://www.w3.org/2000/svg">
<path d="M15 18C16.6569 18 18 16.6569 18 15C18 13.3431 16.6569 12 15 12C13.3431 12 12 13.3431 12 15C12 16.6569 13.3431 18 15 18Z" stroke="#374047" stroke-width="2" stroke-linecap="round" stroke-linejoin="round"/>
<path d="M13 17.5V22L15 20.5L17 22V17.5" stroke="#374047" stroke-width="2" stroke-linecap="round" stroke-linejoin="round"/>
<path d="M10 19H5C4.46957 19 3.96086 18.7893 3.58579 18.4142C3.21071 18.0391 3 17.5304 3 17V7C3 5.9 3.9 5 5 5H19C19.5304 5 20.0391 5.21071 20.4142 5.58579C20.7893 5.96086 21 6.46957 21 7V17C20.9996 17.3507 20.9071 17.6952 20.7315 17.9988C20.556 18.3025 20.3037 18.5546 20 18.73" stroke="#374047" stroke-width="2" stroke-linecap="round" stroke-linejoin="round"/>
<path d="M6 9H18" stroke="#374047" stroke-width="2" stroke-linecap="round" stroke-linejoin="round"/>
<path d="M6 12H9" stroke="#374047" stroke-width="2" stroke-linecap="round" stroke-linejoin="round"/>
<path d="M6 15H8" stroke="#374047" stroke-width="2" stroke-linecap="round" stroke-linejoin="round"/>
</svg>
