<svg width="24" height="24" viewBox="0 0 24 24" fill="none" xmlns="http://www.w3.org/2000/svg">
<path d="M5.28516 21.375V16H7L6.97265 21.375C6.97265 21.7265 6.6914 22 6.41015 22H5.84765C5.53125 22 5.28516 21.7265 5.28516 21.375Z" fill="white"/>
<path d="M4.15494 3.39261C4.81827 2.76721 5.59739 2.29307 6.44328 2C6.68515 2.31893 6.99222 2.57637 7.34164 2.7532C7.69106 2.93002 8.07386 3.02167 8.46157 3.02133C8.84928 3.02167 9.23208 2.93002 9.58151 2.7532C9.93093 2.57637 10.238 2.31893 10.4799 2C11.3258 2.29307 12.1049 2.76721 12.7682 3.39261C12.627 3.77234 12.569 4.18066 12.5983 4.58726C12.6276 4.99386 12.7435 5.38829 12.9375 5.74127C13.131 6.09492 13.3978 6.3981 13.7181 6.62825C14.0383 6.8584 14.4037 7.00961 14.7871 7.07063C14.9684 7.98786 14.9684 8.93453 14.7871 9.85176C14.0377 9.9728 13.3464 10.4365 12.9375 11.1811C12.7434 11.5342 12.6274 11.9287 12.5981 12.3355C12.5688 12.7422 12.6269 13.1506 12.7682 13.5305C12.1048 14.1556 11.3257 14.6295 10.4799 14.9224C10.2379 14.6036 9.93084 14.3463 9.58142 14.1696C9.232 13.9929 8.84923 13.9013 8.46157 13.9017C8.07386 13.9014 7.69106 13.9931 7.34164 14.1699C6.99222 14.3467 6.68515 14.6041 6.44328 14.9231C5.59744 14.6302 4.81833 14.1563 4.15494 13.5312C4.2962 13.1513 4.35434 12.7429 4.32504 12.3362C4.29573 11.9294 4.17974 11.5349 3.98567 11.1818C3.79204 10.8283 3.52519 10.5252 3.20496 10.2952C2.88473 10.0652 2.51936 9.91407 2.136 9.85312C1.95467 8.93567 1.95467 7.98876 2.136 7.07131C2.51942 7.01029 2.88483 6.85908 3.20506 6.62893C3.5253 6.39878 3.79211 6.0956 3.98567 5.74195C4.17964 5.38897 4.29558 4.99454 4.32488 4.58794C4.35418 4.18134 4.2961 3.77302 4.15494 3.39329V3.39261ZM9.43066 10.2278C9.65286 10.0948 9.84788 9.91691 10.0045 9.70429C10.1611 9.49167 10.2762 9.24855 10.3432 8.98892C10.4101 8.72929 10.4277 8.45828 10.3947 8.19149C10.3618 7.92471 10.279 7.66742 10.1512 7.43444C10.0234 7.20145 9.85307 6.99738 9.65002 6.83396C9.44698 6.67054 9.21522 6.55101 8.96811 6.48225C8.72099 6.41348 8.46339 6.39684 8.21014 6.43329C7.95689 6.46973 7.71299 6.55854 7.49248 6.6946C7.05095 6.96704 6.72973 7.41223 6.59891 7.93302C6.46809 8.45381 6.5383 9.00792 6.79421 9.47443C7.05012 9.94094 7.47096 10.282 7.96489 10.4231C8.45882 10.5643 8.98574 10.494 9.43066 10.2278V10.2278Z" fill="white"/>
<path d="M19.3633 5.47656C20.207 6.84375 21.1914 10.9062 21.9296 12.7422C21.9648 12.8984 22 13.0938 22 13.25C22 13.9531 21.5077 14.5 20.9101 14.5H19.7851V17C19.7851 18.4062 18.7657 19.5 17.5351 19.5H16.4101V21.375C16.4101 21.7265 16.1289 22 15.8476 22H15.2852C14.9688 22 14.7227 21.7265 14.7227 21.375V17.625H17.5351C17.8164 17.625 18.0976 17.3515 18.0976 17V12.625H20.0664C19.8554 12 19.6094 11.2969 19.3984 10.5156C18.9414 9.10938 18.3789 7.15625 17.957 6.53125C16.9375 4.92969 15.8984 3.91406 14 3.875V2C16.4609 2 18.0273 3.36719 19.3633 5.47656Z" fill="white"/>
</svg>
