<svg width="24" height="24" viewBox="0 0 24 24" fill="none" xmlns="http://www.w3.org/2000/svg">
<path d="M13 8C13 8.55228 13.4477 9 14 9C14.5523 9 15 8.55228 15 8H13ZM12 4V3V4ZM5 4V3V4ZM3 6H2H3ZM3 18H2H3ZM15 16C15 15.4477 14.5523 15 14 15C13.4477 15 13 15.4477 13 16H15ZM7 11C6.44772 11 6 11.4477 6 12C6 12.5523 6.44772 13 7 13V11ZM21 12L21.7071 12.7071C22.0976 12.3166 22.0976 11.6834 21.7071 11.2929L21 12ZM18.7071 8.29289C18.3166 7.90237 17.6834 7.90237 17.2929 8.29289C16.9024 8.68342 16.9024 9.31658 17.2929 9.70711L18.7071 8.29289ZM17.2929 14.2929C16.9024 14.6834 16.9024 15.3166 17.2929 15.7071C17.6834 16.0976 18.3166 16.0976 18.7071 15.7071L17.2929 14.2929ZM15 8V6H13V8H15ZM15 6C15 5.20435 14.6839 4.44129 14.1213 3.87868L12.7071 5.29289C12.8946 5.48043 13 5.73478 13 6H15ZM14.1213 3.87868C13.5587 3.31607 12.7956 3 12 3V5C12.2652 5 12.5196 5.10536 12.7071 5.29289L14.1213 3.87868ZM12 3H5V5H12V3ZM5 3C4.20435 3 3.44129 3.31607 2.87868 3.87868L4.29289 5.29289C4.48043 5.10536 4.73478 5 5 5V3ZM2.87868 3.87868C2.31607 4.44129 2 5.20435 2 6H4C4 5.73478 4.10536 5.48043 4.29289 5.29289L2.87868 3.87868ZM2 6V18H4V6H2ZM2 18C2 18.7956 2.31607 19.5587 2.87868 20.1213L4.29289 18.7071C4.10536 18.5196 4 18.2652 4 18H2ZM2.87868 20.1213C3.44129 20.6839 4.20435 21 5 21V19C4.73478 19 4.48043 18.8946 4.29289 18.7071L2.87868 20.1213ZM5 21H12V19H5V21ZM12 21C12.7957 21 13.5587 20.6839 14.1213 20.1213L12.7071 18.7071C12.5196 18.8946 12.2652 19 12 19V21ZM14.1213 20.1213C14.6839 19.5587 15 18.7957 15 18H13C13 18.2652 12.8946 18.5196 12.7071 18.7071L14.1213 20.1213ZM15 18V16H13V18H15ZM7 13H21V11H7V13ZM21.7071 11.2929L18.7071 8.29289L17.2929 9.70711L20.2929 12.7071L21.7071 11.2929ZM18.7071 15.7071L21.7071 12.7071L20.2929 11.2929L17.2929 14.2929L18.7071 15.7071Z" fill="white"/>
</svg>
