<svg width="24" height="24" viewBox="0 0 24 24" fill="none" xmlns="http://www.w3.org/2000/svg">
<path d="M15 3H9C7.89543 3 7 4.15127 7 5.57143V18.4286C7 19.8487 7.89543 21 9 21H15C16.1046 21 17 19.8487 17 18.4286V5.57143C17 4.15127 16.1046 3 15 3Z" stroke="#374047" stroke-width="2" stroke-linecap="round" stroke-linejoin="round"/>
<path d="M6.2 7H3.8C3.35817 7 3 7.63959 3 8.42857V15.5714C3 16.3604 3.35817 17 3.8 17H6.2C6.64183 17 7 16.3604 7 15.5714V8.42857C7 7.63959 6.64183 7 6.2 7Z" stroke="#374047" stroke-width="2" stroke-linecap="round" stroke-linejoin="round"/>
<path d="M20.2 7H17.8C17.3582 7 17 7.63959 17 8.42857V15.5714C17 16.3604 17.3582 17 17.8 17H20.2C20.6418 17 21 16.3604 21 15.5714V8.42857C21 7.63959 20.6418 7 20.2 7Z" stroke="#374047" stroke-width="2" stroke-linecap="round" stroke-linejoin="round"/>
</svg>
