<svg width="200" height="40" viewBox="0 0 200 40" fill="none" xmlns="http://www.w3.org/2000/svg">
<path fill-rule="evenodd" clip-rule="evenodd" d="M181.512 0.0128411C194.286 0.0128411 200 6.83146 200 19.9936C200 32.244 195.167 39.4992 183.005 40H182.968H0L1.07672 11.1075C1.32142 4.67416 5.86076 0 12.0152 0H174.734C176.997 0 179.249 0.0256822 181.512 0.0256822V0.0128411Z" fill="#374047"/>
<path d="M24.2611 31H29.2211L22.8531 10.2C22.6611 9.39999 21.9891 8.91999 21.1571 8.91999H16.5491C15.7491 8.91999 15.0451 9.39999 14.8531 10.2L8.48511 31H13.4771L15.0771 25.208H22.6611L24.2611 31ZM16.1011 21.432L17.9571 14.68L18.4371 12.6H19.3011C19.3971 13.272 19.5891 14.008 19.7491 14.68L21.6051 21.432H16.1011ZM41.5856 8.59999V12.888C41.5856 14.04 41.6496 15.128 41.7456 16.184C40.3056 15.192 38.4816 14.776 36.6256 14.776C32.6576 14.776 30.5776 16.664 30.5776 22.968C30.5776 28.344 32.1456 31.384 36.1776 31.384C38.9616 31.384 40.9456 30.136 42.2256 28.664L42.5776 31H46.3216V8.59999H41.5856ZM35.4416 22.936C35.4416 18.968 36.2096 18.296 38.2256 18.296C39.5376 18.296 40.4336 18.584 41.5856 18.904V26.2C40.2416 27.064 39.4736 27.48 38.0656 27.48C36.2096 27.48 35.4416 26.712 35.4416 22.936ZM70.1536 14.776C68.0416 14.776 66.2496 15.608 64.3936 17.336C63.8176 15.64 62.4416 14.776 60.3296 14.776C58.1216 14.776 56.2976 15.736 54.3136 17.528L53.9936 15.224H50.2176V31H54.9216V20.152C56.6496 19.096 57.3856 18.776 58.4096 18.776C59.5936 18.776 60.1056 19.224 60.1056 20.632V31H64.6496V20.184C66.3776 19.128 67.1136 18.776 68.1696 18.776C69.4496 18.776 69.8336 19.288 69.8336 20.632V31H74.5376V19.16C74.5376 16.312 73.0016 14.776 70.1536 14.776ZM81.8314 8.24799H79.7194C78.7914 8.24799 78.3434 8.72799 78.3434 9.62399V11.352C78.3434 12.28 78.7914 12.728 79.7194 12.728H81.8314C82.7594 12.728 83.2074 12.28 83.2074 11.352V9.62399C83.2074 8.72799 82.7594 8.24799 81.8314 8.24799ZM83.1434 15.224H78.4394V31H83.1434V15.224ZM98.0991 14.776C95.8271 14.776 93.5231 15.768 91.3471 17.56L90.9951 15.224H87.1551V31H91.8911L91.8591 20.216C93.7471 19.256 94.9631 18.776 96.2751 18.776C97.4271 18.776 97.8111 19.192 97.8111 20.632V31H102.515V19.16C102.515 16.312 100.979 14.776 98.0991 14.776Z" fill="white"/>
<path d="M114.983 8.63198C111.015 8.63198 109.255 8.66398 106.599 8.91998V31H111.463V22.808C112.743 22.968 114.183 23.064 115.623 23.064C121.095 23.064 123.047 21.528 123.047 15.832C123.047 10.2 121.095 8.63198 114.983 8.63198ZM114.887 19.32H111.463V12.376H114.887C117.383 12.376 118.151 13.08 118.151 15.832C118.151 18.584 117.383 19.288 114.887 19.32ZM134.003 14.776C131.795 14.776 128.083 15.128 125.779 15.544L126.227 18.744C128.755 18.584 131.379 18.488 132.883 18.488C134.899 18.488 135.443 18.936 135.475 20.536V21.24H129.843C126.835 21.24 125.011 22.712 125.011 25.24V26.84C125.011 29.784 127.219 31.384 130.163 31.384C132.947 31.384 134.867 29.912 135.987 28.6L136.467 31H140.211V20.568C140.211 16.12 138.067 14.776 134.003 14.776ZM129.683 26.2V25.592C129.683 24.696 130.067 24.12 131.219 24.088H135.475V26.296C134.131 27.32 132.627 27.832 131.539 27.832C130.259 27.832 129.683 27.32 129.683 26.2ZM154.912 14.776C152.64 14.776 150.336 15.768 148.16 17.56L147.808 15.224H143.968V31H148.704L148.672 20.216C150.56 19.256 151.776 18.776 153.088 18.776C154.24 18.776 154.624 19.192 154.624 20.632V31H159.328V19.16C159.328 16.312 157.792 14.776 154.912 14.776ZM171.22 27.608C168.82 27.608 167.796 27.096 167.476 24.696H173.172C176.596 24.696 177.972 23.16 177.972 20.28C177.94 16.664 175.86 14.776 170.484 14.776C164.756 14.776 162.452 16.888 162.452 23.128C162.452 28.952 164.692 31.384 170.676 31.384C172.916 31.384 175.7 31.096 177.556 30.2L177.108 27.256C174.964 27.48 172.66 27.608 171.22 27.608ZM170.644 18.232C172.692 18.232 173.332 18.744 173.332 20.216C173.332 21.112 173.14 21.848 171.86 21.848H167.38C167.508 18.872 168.276 18.2 170.644 18.232ZM185.766 8.59998H181.062V27.032C181.062 29.816 182.822 31.384 185.606 31.384C186.63 31.384 188.582 31.16 189.382 30.744L188.838 27.448H187.558C186.374 27.448 185.766 26.936 185.766 25.848V8.59998Z" fill="#6BC38B"/>
</svg>
