<svg width="200" height="40" viewBox="0 0 200 40" fill="none" xmlns="http://www.w3.org/2000/svg">
<path fill-rule="evenodd" clip-rule="evenodd" d="M181.512 0.0128411C194.286 0.0128411 200 6.83146 200 19.9936C200 32.244 195.167 39.4992 183.005 40H182.968H0L1.07672 11.1075C1.32142 4.67416 5.86076 0 12.0152 0H174.734C176.997 0 179.249 0.0256822 181.512 0.0256822V0.0128411Z" fill="#374047"/>
<path d="M32.2653 9.07865H26.5024C25.1198 9.07865 24.2388 9.77207 24.0064 11.1974L22.5993 19.8652C22.4525 20.9438 22.3546 22.0482 22.2322 23.1268H21.963C21.8774 22.0482 21.7795 20.9438 21.6327 19.8652L20.1277 11.1974C19.883 9.77207 19.0143 9.07865 17.6562 9.07865H12.0156C10.5107 9.07865 9.7888 9.90048 9.72763 11.4543L9.00574 30.9085H14.891L15.4049 14.2022H15.8576L17.9376 25.3355C18.1823 26.7223 19.051 27.4286 20.4336 27.4286H23.8106C25.1932 27.4286 26.0619 26.7351 26.2821 25.3355L28.3255 14.2022H28.7782L29.4144 30.9085H35.2996L34.5777 11.4543C34.5166 9.90048 33.7947 9.07865 32.2897 9.07865H32.2653ZM50.6918 30.9085H57.3478L51.952 10.8507C51.6828 9.77207 50.8019 9.07865 49.7497 9.07865H43.8155C42.7632 9.07865 41.8823 9.77207 41.6131 10.8507L36.2173 30.9085H42.8734L43.9256 26.1958H49.6273L50.6795 30.9085H50.6918ZM44.9901 21.3804L46.0179 16.6934C46.1647 15.8973 46.287 14.9856 46.3849 14.1894H47.2047C47.2659 14.9856 47.4127 15.8973 47.5718 16.6934L48.5995 21.3804H45.0146H44.9901ZM75.4318 24.1926C74.9179 21.5345 73.1682 20.931 72.0303 20.7769V20.5843C75.2605 20.2376 76.2516 18.016 76.2516 15.3965C76.2516 10.2986 73.5965 8.75762 67.4788 8.75762C63.3187 8.75762 61.4222 8.7833 58.6448 9.07865V30.9085H65.0684V22.9342H67.0872C68.2007 22.9342 68.6289 23.2167 68.8614 24.4238L70.2195 30.9085H77.0591L75.4318 24.2055V24.1926ZM67.3197 18.0803H65.0562V13.5859H67.3197C69.1917 13.5859 69.6689 14.0225 69.6689 15.8331C69.6689 17.6308 69.1917 18.0803 67.3197 18.0803ZM85.526 9.06581H79.0412V30.8957H85.526V9.06581ZM97.7614 8.62921C90.6526 8.62921 88.0832 11.0048 88.0832 19.9807C88.0832 28.9695 90.6404 31.3323 97.7614 31.3323C104.907 31.3323 107.464 28.9567 107.464 19.9807C107.464 10.992 104.907 8.62921 97.7614 8.62921ZM97.7614 13.7271C99.9882 13.7271 100.563 14.9342 100.563 19.9936C100.563 25.053 99.9882 26.26 97.7614 26.26C95.5346 26.26 94.9595 25.053 94.9595 19.9936C94.9595 14.9342 95.5346 13.7271 97.7614 13.7271Z" fill="white"/>
<path d="M117.643 25.7849C116.885 25.7849 116.408 25.3098 116.408 24.6421V22.0225H124.189V17.4639H116.408V15.3451C116.408 14.6774 116.885 14.2023 117.643 14.2023H125.266L125.572 9.36119C122.562 8.95028 118.341 8.95028 114.756 8.95028C111.893 8.95028 109.874 10.9792 109.874 13.9198V26.0674C109.874 29.0081 111.893 31.037 114.756 31.037C118.341 31.037 122.562 31.037 125.572 30.626L125.266 25.7849H117.643ZM134.467 9.07869H127.921V26.0674C127.921 29.0081 129.854 31.037 132.864 31.037C136.266 31.037 139.924 31.037 143.02 30.6004L142.714 25.4768H135.715C134.932 25.4768 134.455 25.0016 134.455 24.3339V9.07869H134.467ZM161.385 9.07869H154.668L151.988 23.2809C151.841 24.0771 151.682 24.9888 151.597 25.7849H150.875C150.752 24.9888 150.63 24.0771 150.483 23.2809L147.804 9.07869H141.086L146.152 29.0723C146.397 30.1766 147.265 30.9085 148.379 30.9085H154.105C155.218 30.9085 156.099 30.1766 156.332 29.0723L161.397 9.07869H161.385ZM169.399 9.07869H162.914V30.9085H169.399V9.07869ZM181.635 8.64209C174.526 8.64209 171.956 11.0177 171.956 19.9936C171.956 28.9824 174.514 31.3451 181.635 31.3451C188.78 31.3451 191.337 28.9695 191.337 19.9936C191.337 11.0049 188.78 8.64209 181.635 8.64209ZM181.635 13.74C183.861 13.74 184.437 14.9471 184.437 20.0065C184.437 25.0658 183.861 26.2729 181.635 26.2729C179.408 26.2729 178.833 25.0658 178.833 20.0065C178.833 14.9471 179.408 13.74 181.635 13.74Z" fill="#6BC38B"/>
</svg>
