<svg width="24" height="24" viewBox="0 0 24 24" fill="none" xmlns="http://www.w3.org/2000/svg">
<path d="M22 0H2C0.89543 0 0 0.89543 0 2V22C0 23.1046 0.89543 24 2 24H22C23.1046 24 24 23.1046 24 22V2C24 0.89543 23.1046 0 22 0Z" fill="#6BC38B"/>
<path fill-rule="evenodd" clip-rule="evenodd" d="M12 20C16.4183 20 20 16.4183 20 12C20 7.58172 16.4183 4 12 4C7.58172 4 4 7.58172 4 12C4 13.4348 4.37771 14.7814 5.03913 15.9457L4 20L8.17992 19.0307C9.31507 19.6488 10.6165 20 12 20ZM12 18.7692C15.7385 18.7692 18.7692 15.7385 18.7692 12C18.7692 8.26146 15.7385 5.23077 12 5.23077C8.26146 5.23077 5.23077 8.26146 5.23077 12C5.23077 13.4435 5.68257 14.7814 6.45248 15.8801L5.84615 18.1538L8.15996 17.5754C9.25106 18.3283 10.574 18.7692 12 18.7692Z" fill="#374047"/>
<path d="M10.0327 8.31809C9.8508 7.96987 9.57168 8.0007 9.28971 8.0007C8.78577 8.0007 8 8.57585 8 9.64625C8 10.5235 8.4057 11.4838 9.77277 12.9203C11.0921 14.3067 12.8256 15.0238 14.2648 14.9994C15.7039 14.975 16 13.795 16 13.3965C16 13.2198 15.885 13.1317 15.8057 13.1078C15.3153 12.8835 14.4108 12.4656 14.205 12.3871C13.9992 12.3086 13.8917 12.4148 13.8249 12.4726C13.6383 12.642 13.2683 13.1415 13.1416 13.2538C13.015 13.3662 12.8261 13.3093 12.7475 13.2668C12.4583 13.1563 11.6742 12.8239 11.0492 12.2466C10.2762 11.5326 10.2308 11.287 10.0852 11.0683C9.96865 10.8934 10.0541 10.7861 10.0968 10.7392C10.2634 10.5561 10.4933 10.2734 10.5964 10.1329C10.6996 9.99239 10.6177 9.7791 10.5686 9.64626C10.3573 9.07493 10.1783 8.59666 10.0327 8.31809Z" fill="#374047"/>
</svg>
