<svg width="24" height="24" viewBox="0 0 24 24" fill="none" xmlns="http://www.w3.org/2000/svg">
<path d="M21.6228 11.109L12.8905 2.37723C12.3879 1.87426 11.5723 1.87426 11.0691 2.37723L9.25583 4.19052L11.556 6.49077C12.0906 6.31017 12.7035 6.4313 13.1297 6.85747C13.5578 7.28628 13.6781 7.90445 13.4931 8.44079L15.7099 10.6576C16.2462 10.4729 16.865 10.5925 17.2934 11.0215C17.892 11.6199 17.892 12.5899 17.2934 13.1887C16.6945 13.7876 15.7246 13.7876 15.1255 13.1887C14.6752 12.738 14.564 12.0766 14.792 11.5218L12.7246 9.45441L12.7244 14.895C12.8703 14.9674 13.0081 15.0637 13.1297 15.1848C13.7283 15.7833 13.7283 16.7532 13.1297 17.3525C12.5308 17.9512 11.5604 17.9512 10.9625 17.3525C10.3638 16.7532 10.3638 15.7833 10.9625 15.1848C11.1104 15.0372 11.2815 14.9255 11.4641 14.8504V9.35916C11.2815 9.28455 11.1106 9.17352 10.9625 9.02472C10.5089 8.57179 10.3998 7.9062 10.6322 7.34924L8.3649 5.08147L2.37739 11.0687C1.8742 11.5721 1.8742 12.3878 2.37739 12.8907L11.1097 21.6228C11.6124 22.1257 12.4279 22.1257 12.9313 21.6228L21.6228 12.9313C22.1257 12.4281 22.1257 11.612 21.6228 11.109" fill="#374047"/>
</svg>
