<svg width="24" height="24" viewBox="0 0 24 24" fill="none" xmlns="http://www.w3.org/2000/svg">
<path fill-rule="evenodd" clip-rule="evenodd" d="M12 2C6.477 2 2 6.58993 2 12.2536C2 16.7832 4.865 20.6269 8.839 21.9822C9.339 22.0763 9.521 21.76 9.521 21.4877C9.521 21.2451 9.513 20.5992 9.508 19.7445C6.726 20.3638 6.139 18.3698 6.139 18.3698C5.685 17.1844 5.029 16.8692 5.029 16.8692C4.121 16.2345 5.098 16.2468 5.098 16.2468C6.101 16.3184 6.629 17.3032 6.629 17.3032C7.521 18.8693 8.97 18.4169 9.539 18.1548C9.631 17.4925 9.889 17.0411 10.175 16.7852C7.955 16.5262 5.62 15.6459 5.62 11.7173C5.62 10.5984 6.01 9.6823 6.649 8.96576C6.546 8.70678 6.203 7.66371 6.747 6.25316C6.747 6.25316 7.587 5.97678 9.497 7.30339C10.3128 7.07565 11.1544 6.95965 12 6.95843C12.85 6.96253 13.705 7.07615 14.504 7.30339C16.413 5.97678 17.251 6.25213 17.251 6.25213C17.797 7.66371 17.453 8.70678 17.351 8.96576C17.991 9.6823 18.379 10.5984 18.379 11.7173C18.379 15.6562 16.04 16.5232 13.813 16.777C14.172 17.0933 14.491 17.7188 14.491 18.6759C14.491 20.0455 14.479 21.152 14.479 21.4877C14.479 21.7621 14.659 22.0814 15.167 21.9811C17.1583 21.2975 18.8893 19.9905 20.1155 18.245C21.3416 16.4994 22.0009 14.4036 22 12.2536C22 6.58993 17.522 2 12 2Z" fill="#5C6BC0"/>
</svg>
