<svg width="24" height="24" viewBox="0 0 24 24" fill="none" xmlns="http://www.w3.org/2000/svg">
<path d="M11.9045 2.00909L12.5016 3.0138C12.6359 3.1992 12.7813 3.36332 12.9526 3.51615C13.4548 3.96046 13.923 4.43466 14.3539 4.93553C15.3656 6.12564 16.0481 7.44729 16.5354 8.87668C16.8277 9.74984 16.9864 10.6456 16.9983 11.5513C17.0473 14.2591 16.011 16.5842 13.9217 18.5166C13.5819 18.823 13.2147 19.1042 12.8239 19.3572C12.617 19.3572 12.5191 19.215 12.4338 19.0841C12.2784 18.8413 12.175 18.5747 12.1289 18.298C12.0555 17.9704 12.0072 17.6428 12.031 17.3046V17.1517C12.0142 17.1192 11.8317 2.08614 11.9045 2.00909V2.00909Z" fill="#599636"/>
<path d="M11.9555 2.02155C11.931 1.9777 11.9065 2.0109 11.8821 2.03219C11.8939 2.25143 11.8086 2.44685 11.6751 2.63352C11.5282 2.81892 11.3339 2.96111 11.1388 3.11395C10.055 3.95455 9.20192 4.9699 8.51877 6.10552C7.60978 7.63388 7.1413 9.27185 7.00844 10.9963C6.94761 11.6183 7.228 13.8131 7.44686 14.4463C8.044 16.1275 9.11661 17.5363 10.506 18.7589C10.8472 19.0533 11.2122 19.3264 11.5898 19.5889C11.6995 19.5889 11.7114 19.5012 11.7366 19.4361C11.7847 19.2967 11.8214 19.1543 11.8464 19.0101L12.0911 17.3728L11.9555 2.02156L11.9555 2.02155Z" fill="#6CAC48"/>
<path d="M12.5017 20.0225C12.5261 19.772 12.6604 19.564 12.8065 19.3567C12.6597 19.3022 12.5506 19.1938 12.4653 19.0729C12.3917 18.9585 12.3309 18.8378 12.2835 18.7128C12.1129 18.2543 12.0765 17.7732 12.0276 17.3047V17.0209C11.9668 17.0648 11.9542 17.4356 11.9542 17.4907C11.9186 17.9859 11.8452 18.4783 11.7346 18.9646C11.6982 19.1613 11.6738 19.3573 11.5388 19.5321C11.5388 19.554 11.5388 19.5759 11.5507 19.6085C11.7703 20.1873 11.8304 20.7767 11.8674 21.3774V21.5966C11.8674 21.8584 11.8556 21.8033 12.0982 21.891C12.1961 21.9236 12.3052 21.9349 12.4031 22C12.4765 22 12.4884 21.9455 12.4884 21.9017L12.452 21.5415V20.5368C12.4401 20.3614 12.4765 20.1873 12.501 20.0232L12.5017 20.0225V20.0225Z" fill="#C2BFBF"/>
</svg>
