<svg width="24" height="24" viewBox="0 0 24 24" fill="none" xmlns="http://www.w3.org/2000/svg">
<path fill-rule="evenodd" clip-rule="evenodd" d="M20.4221 17.4683C19.3341 17.4404 18.4901 17.5516 17.7827 17.8566C17.579 17.9404 17.2521 17.9404 17.2253 18.2032C17.3342 18.3134 17.3473 18.4939 17.4427 18.6467C17.6058 18.924 17.8918 19.2977 18.1501 19.4915C18.4361 19.7135 18.7218 19.935 19.0206 20.1291C19.5512 20.4614 20.1498 20.6555 20.6666 20.9881C20.966 21.1822 21.2651 21.4316 21.5646 21.6397C21.717 21.7506 21.8094 21.9311 22 22V21.9581C21.9049 21.8338 21.8774 21.6537 21.7826 21.5146C21.6463 21.3764 21.5103 21.2512 21.374 21.113C20.9797 20.5726 20.4897 20.1011 19.9592 19.7135C19.5238 19.4085 18.5718 18.993 18.395 18.4805L18.3681 18.4526C18.6669 18.4246 19.0207 18.3137 19.3067 18.2305C19.7695 18.1063 20.1909 18.1336 20.6666 18.0091C20.8846 17.9531 21.102 17.8842 21.32 17.8149V17.6907C21.0752 17.4413 20.8983 17.1087 20.6401 16.8733C19.9464 16.2636 19.1841 15.6676 18.395 15.1688C17.9733 14.8918 17.429 14.7113 16.9801 14.4762C16.8164 14.393 16.5447 14.3514 16.4496 14.2128C16.2041 13.9085 16.0684 13.5063 15.8916 13.1457C15.4973 12.3835 15.1162 11.5384 14.7762 10.7347C14.5314 10.1943 14.3813 9.65385 14.0825 9.15506C12.6811 6.79932 11.1571 5.37221 8.81721 3.97243C8.3141 3.68141 7.71555 3.55625 7.07918 3.40407L6.05893 3.34816C5.84091 3.25126 5.62351 2.98789 5.43294 2.86304C4.65753 2.36425 2.65758 1.28343 2.08586 2.71085C1.71844 3.61153 2.63014 4.49824 2.93963 4.95572C3.17137 5.27437 3.47018 5.63465 3.63392 5.99492C3.7254 6.23034 3.75589 6.48004 3.85133 6.72944C4.06874 7.33911 4.27303 8.01834 4.55874 8.5867C4.7112 8.87771 4.87128 9.18301 5.06186 9.44607C5.17071 9.59826 5.36128 9.66783 5.40183 9.91722C5.21126 10.1946 5.19815 10.6098 5.08929 10.9567C4.59929 12.5227 4.78987 14.4626 5.48355 15.6123C5.70157 15.9586 6.21535 16.7211 6.91239 16.4298C7.52467 16.1804 7.38807 15.3906 7.56492 14.6977C7.60608 14.5315 7.57864 14.4206 7.66005 14.3094V14.3374L8.21805 15.4875C8.63975 16.1664 9.3746 16.8733 9.98657 17.3447C10.3128 17.5941 10.5714 18.024 10.9794 18.1761V18.1342H10.9525C10.8708 18.01 10.7482 17.9541 10.6394 17.8572C10.3945 17.6078 10.1226 17.3028 9.93199 17.0258C9.36088 16.2499 8.85777 15.3906 8.40862 14.5039C8.19061 14.0743 8.00003 13.6032 7.82379 13.1736C7.74147 13.0072 7.74147 12.7575 7.60578 12.6749C7.40148 12.9792 7.10266 13.2432 6.95234 13.6172C6.69377 14.2128 6.66694 14.9474 6.5718 15.7095C6.51692 15.7235 6.54131 15.7095 6.51692 15.7375C6.08211 15.6269 5.93209 15.1691 5.76896 14.7815C5.36098 13.7976 5.29268 12.218 5.64638 11.0816C5.74151 10.7906 6.1501 9.87592 5.98697 9.59888C5.90464 9.33551 5.63327 9.18332 5.48325 8.97524C5.30639 8.71187 5.11643 8.37955 4.99386 8.08853C4.66759 7.31209 4.50446 6.45333 4.15045 5.6772C3.98671 5.31692 3.70131 4.94268 3.46988 4.61036C3.21131 4.23611 2.92621 3.97274 2.72192 3.52954C2.65392 3.37736 2.55879 3.12765 2.66764 2.96118C2.69448 2.8503 2.74936 2.809 2.85761 2.78104C3.03446 2.62886 3.53818 2.82266 3.71503 2.90528C4.21815 3.11336 4.63985 3.30717 5.06155 3.59787C5.25212 3.73639 5.45642 3.99976 5.70126 4.06933H5.98727C6.4227 4.16623 6.91209 4.09728 7.31976 4.22151C8.04089 4.45755 8.69372 4.80354 9.27916 5.1781C11.0611 6.32817 12.5308 7.96337 13.5236 9.91754C13.6867 10.2362 13.7547 10.5272 13.9048 10.8598C14.1908 11.5391 14.5445 12.2317 14.8296 12.8972C15.1156 13.5485 15.3876 14.2141 15.7955 14.7545C15.9998 15.0455 16.8158 15.1977 17.1829 15.3502C17.4552 15.4744 17.8766 15.5862 18.1221 15.7384C18.5843 16.0294 19.0469 16.3621 19.482 16.6807C19.6994 16.8466 20.38 17.1932 20.4205 17.4696L20.4221 17.4683ZM6.54832 5.42656C6.36036 5.42487 6.17299 5.44815 5.99094 5.49582V5.52377H6.01777C6.12662 5.74552 6.3172 5.89802 6.45319 6.09213L6.76634 6.75739L6.79317 6.72944C6.98375 6.59092 7.07918 6.36917 7.07918 6.03685C6.99747 5.93995 6.98405 5.84274 6.91605 5.74583C6.83433 5.60732 6.65749 5.53713 6.54832 5.42656Z" fill="#374047"/>
</svg>
