<svg width="24" height="24" viewBox="0 0 24 24" fill="none" xmlns="http://www.w3.org/2000/svg">
<path d="M4 9.42859V12C4 14.4286 7.49091 16.2857 12 16.2857C16.5091 16.2857 20 14.4286 20 12V9.42859C18.4 11 15.4909 12 12 12C8.50909 12 5.6 11 4 9.42859V9.42859Z" fill="white"/>
<path d="M4 15.1429V17.7143C4 20.1429 7.49091 22 12 22C16.5091 22 20 20.1429 20 17.7143V15.1429C18.4 16.7143 15.4909 17.7143 12 17.7143C8.50909 17.7143 5.6 16.7143 4 15.1429V15.1429Z" fill="white"/>
<path d="M12 10.5714C16.4183 10.5714 20 8.65265 20 6.28571C20 3.91878 16.4183 2 12 2C7.58172 2 4 3.91878 4 6.28571C4 8.65265 7.58172 10.5714 12 10.5714Z" fill="white"/>
</svg>
