<svg width="24" height="18" viewBox="0 0 24 18" fill="none" xmlns="http://www.w3.org/2000/svg">
<path fill-rule="evenodd" clip-rule="evenodd" d="M0 0H24V18H0V0Z" fill="#229E45"/>
<path fill-rule="evenodd" clip-rule="evenodd" d="M12.0525 16.35L23.3588 9.01127L11.985 1.65002L0.641251 9.02627L12.0525 16.35Z" fill="#F8E509"/>
<path fill-rule="evenodd" clip-rule="evenodd" d="M16.98 9C16.98 11.6362 14.8388 13.7737 12.195 13.7737C11.2503 13.7723 10.3272 13.4907 9.54242 12.9647C8.75767 12.4387 8.1465 11.6918 7.78616 10.8185C7.42583 9.94514 7.3325 8.98459 7.518 8.05823C7.70349 7.13188 8.15946 6.28132 8.82828 5.61408C9.4971 4.94683 10.3487 4.49286 11.2755 4.30955C12.2023 4.12624 13.1626 4.22182 14.0351 4.58421C14.9076 4.9466 15.653 5.55953 16.1772 6.34552C16.7014 7.13151 16.9807 8.05526 16.98 9V9Z" fill="#2B49A3"/>
<path fill-rule="evenodd" clip-rule="evenodd" d="M10.6237 11.8613L10.4737 11.775L10.3237 11.85L10.3575 11.6813L10.2375 11.5538L10.4062 11.535L10.4887 11.385L10.56 11.5425L10.725 11.5725L10.6012 11.685L10.6237 11.8613ZM13.8262 12.6713L13.68 12.585L13.53 12.66L13.56 12.4913L13.4437 12.3675L13.6125 12.3488L13.6912 12.195L13.7662 12.3525L13.9312 12.3825L13.8037 12.4988L13.8262 12.6713ZM12.4462 11.3738L12.3187 11.2988L12.1875 11.3663L12.2175 11.22L12.1125 11.1113L12.2625 11.0963L12.33 10.9613L12.39 11.1L12.5362 11.1263L12.4237 11.2275L12.4462 11.3738ZM15.6862 10.9088L15.5587 10.8338L15.4275 10.9013L15.4575 10.755L15.3562 10.65L15.5025 10.635L15.57 10.5038L15.63 10.6388L15.7725 10.665L15.6637 10.7625L15.6862 10.9088ZM12.39 9.93753L12.24 9.85503L12.09 9.93003L12.12 9.75753L12.0037 9.63378L12.1725 9.61503L12.2512 9.46128L12.3262 9.61878L12.4912 9.64878L12.3637 9.76878L12.39 9.93753ZM8.44125 8.45628L8.29125 8.37378L8.14125 8.44878L8.17875 8.27628L8.055 8.15253L8.2275 8.13378L8.3025 7.98003L8.3775 8.13753L8.5425 8.16753L8.41875 8.28378L8.44125 8.45628ZM8.9175 10.4288L8.7675 10.3425L8.6175 10.4175L8.65125 10.2488L8.53125 10.125L8.7 10.1025L8.77875 9.95253L8.85375 10.11L9.01875 10.14L8.895 10.2563L8.9175 10.4288ZM13.845 7.73253L13.71 7.65753L13.575 7.72503L13.605 7.57503L13.5 7.46253L13.65 7.44378L13.7212 7.30878L13.785 7.45128L13.935 7.47753L13.8225 7.57878L13.845 7.73253ZM13.5712 9.01503L13.47 8.95503L13.3612 9.00753L13.3837 8.88753L13.3012 8.80128L13.4212 8.78628L13.4775 8.68128L13.5262 8.79378L13.6387 8.81253L13.5562 8.89503L13.5712 9.01503ZM8.22375 10.785L8.1225 10.7288L8.02125 10.7775L8.04375 10.665L7.965 10.5825L8.0775 10.5675L8.13 10.4663L8.17875 10.5713L8.29125 10.5938L8.205 10.6688L8.22375 10.785ZM15.7125 11.2425L15.63 11.2013L15.5475 11.2388L15.5662 11.1525L15.5025 11.0925L15.5925 11.0813L15.6375 11.0063L15.675 11.0813L15.7687 11.1L15.6975 11.1563" fill="#FFFFEF"/>
<path fill-rule="evenodd" clip-rule="evenodd" d="M8.22375 10.785L8.1225 10.7287L8.02125 10.7775L8.04375 10.665L7.965 10.5825L8.0775 10.5675L8.13 10.4662L8.17875 10.5712L8.29125 10.5937L8.205 10.6687" fill="#FFFFEF"/>
<path fill-rule="evenodd" clip-rule="evenodd" d="M8.22375 10.785L8.1225 10.7288L8.02125 10.7775L8.04375 10.665L7.965 10.5825L8.0775 10.5675L8.13 10.4663L8.17875 10.5713L8.29125 10.5938L8.205 10.6688L8.22375 10.785ZM9.79125 10.7813L9.69375 10.7288L9.5925 10.7775L9.615 10.665L9.53625 10.5825L9.64875 10.5675L9.70125 10.4663L9.75 10.5713L9.8625 10.59L9.77625 10.6688L9.79125 10.7813ZM9.59625 11.3063L9.49875 11.25L9.3975 11.3025L9.42 11.19L9.34125 11.1038L9.45375 11.0888L9.50625 10.9875L9.555 11.0925L9.6675 11.115L9.58125 11.19L9.59625 11.3063ZM12.8587 10.3575L12.7612 10.2975L12.6562 10.35L12.6787 10.2375L12.6037 10.1513L12.7162 10.14L12.7687 10.0388L12.8137 10.1438L12.9262 10.1625L12.8437 10.2413L12.8587 10.3575ZM11.9025 10.3538L11.8012 10.2975L11.7 10.35L11.7225 10.2375L11.6475 10.1513L11.76 10.14L11.8125 10.035L11.8575 10.1438L11.97 10.1625L11.8875 10.2413L11.9025 10.3538ZM9.3075 10.0238L9.24375 9.98628L9.18 10.0163L9.195 9.94503L9.14625 9.89253L9.2175 9.88503L9.2475 9.82128L9.2775 9.88878L9.34875 9.90003L9.29625 9.94878L9.3075 10.0238ZM15.5887 11.6513L15.4912 11.595L15.39 11.6475L15.4125 11.535L15.3337 11.4488L15.4462 11.4338L15.4987 11.3325L15.5475 11.4375L15.66 11.46L15.5737 11.535L15.5887 11.6513ZM14.7937 11.76L14.7112 11.7075L14.625 11.7525L14.6437 11.655L14.58 11.5875L14.6737 11.5763L14.7187 11.49L14.7562 11.58L14.85 11.595L14.7787 11.6625L14.7937 11.76ZM15.1687 11.7488L15.0937 11.7038L15.015 11.7413L15.03 11.655L14.97 11.5913L15.0562 11.58L15.0975 11.505L15.135 11.58L15.2212 11.5988L15.1575 11.6588L15.1687 11.7488ZM16.2487 10.8038L16.1737 10.7663L16.0987 10.8038L16.1175 10.7175L16.0575 10.6538L16.1437 10.6425L16.1812 10.5675L16.2187 10.6463L16.2975 10.6613L16.2375 10.7213L16.2487 10.8038ZM14.7825 12.2888L14.6887 12.2363L14.5875 12.2813L14.61 12.1763L14.535 12.1013L14.6475 12.09L14.6962 11.9963L14.7412 12.0938L14.8537 12.1125L14.7675 12.1838L14.7825 12.2888ZM14.79 12.7163L14.7 12.6638L14.61 12.7125L14.6325 12.6075L14.5612 12.5325L14.6625 12.5175L14.7075 12.4238L14.7487 12.5213L14.85 12.54L14.775 12.615L14.79 12.7163ZM14.0625 11.7488L13.9912 11.7038L13.9162 11.7413L13.9312 11.6588L13.875 11.595L13.9575 11.5875L13.995 11.5125L14.0325 11.5875L14.115 11.6025L14.055 11.6625L14.0625 11.7488ZM13.3875 11.7488L13.3125 11.7038L13.2375 11.7413L13.2562 11.6588L13.1962 11.595L13.2825 11.5875L13.32 11.5125L13.3575 11.5875L13.4362 11.6025L13.3762 11.6625L13.3875 11.7488ZM12.2362 10.74L12.1612 10.6988L12.0862 10.7363L12.105 10.65L12.045 10.59L12.1275 10.5788L12.165 10.5038L12.2025 10.5788L12.285 10.5975L12.225 10.6538L12.2362 10.74ZM12.3637 12.7913L12.3037 12.7575L12.2362 12.7913L12.2512 12.7163L12.2025 12.6638L12.2737 12.6563L12.3075 12.5925L12.3375 12.66L12.4087 12.6713L12.3562 12.72L12.3637 12.7913ZM10.6237 9.47253L10.4737 9.38628L10.3237 9.46128L10.3575 9.29253L10.2375 9.16878L10.4062 9.14628L10.4887 8.99628L10.56 9.15378L10.725 9.18378L10.6012 9.30003" fill="#FFFFEF"/>
<path fill-rule="evenodd" clip-rule="evenodd" d="M16.665 10.7175C16.7579 10.4764 16.8307 10.2281 16.8825 9.97499C14.34 7.74374 11.5088 6.59999 7.93125 6.83624C7.8015 7.08731 7.69481 7.34964 7.6125 7.61999C11.85 7.21499 14.9625 9.08999 16.665 10.7175Z" fill="white"/>
<path d="M15.525 9.46498L15.6112 9.51373C15.5984 9.53919 15.5944 9.56824 15.6 9.59623C15.6088 9.62336 15.6275 9.64615 15.6525 9.65998C15.6787 9.67873 15.705 9.68997 15.7275 9.68622C15.75 9.68622 15.765 9.67498 15.7762 9.65998C15.7828 9.65002 15.7855 9.63801 15.7837 9.62623C15.7807 9.61237 15.7742 9.59949 15.765 9.58873C15.7575 9.57748 15.7387 9.55123 15.7087 9.52123C15.6779 9.4894 15.6548 9.45091 15.6412 9.40873C15.6319 9.3768 15.6343 9.34257 15.6481 9.31229C15.6618 9.282 15.686 9.25767 15.7162 9.24373C15.7435 9.23234 15.7737 9.22972 15.8025 9.23623C15.8377 9.24435 15.8709 9.25967 15.9 9.28123C15.9525 9.31873 15.9862 9.35623 15.9975 9.40123C16.0027 9.42227 16.0034 9.44418 15.9995 9.46551C15.9956 9.48683 15.9873 9.5071 15.975 9.52498L15.885 9.46873C15.8962 9.44623 15.9 9.42373 15.8925 9.40498C15.8887 9.38623 15.8737 9.36748 15.8475 9.35248C15.8282 9.33698 15.8047 9.32781 15.78 9.32623C15.7732 9.326 15.7665 9.32762 15.7605 9.33092C15.7546 9.33423 15.7496 9.33908 15.7462 9.34498C15.7387 9.35623 15.7387 9.36748 15.7425 9.38248C15.7462 9.39748 15.765 9.42748 15.8025 9.46498C15.84 9.50248 15.8625 9.53623 15.8775 9.55873C15.8909 9.5833 15.8969 9.61121 15.895 9.63912C15.893 9.66704 15.883 9.6938 15.8662 9.71623C15.8487 9.74172 15.8239 9.76132 15.795 9.77248C15.7669 9.78542 15.7354 9.78935 15.705 9.78373C15.6712 9.77623 15.6375 9.76123 15.6 9.73498C15.5437 9.69748 15.51 9.65622 15.4987 9.61122C15.4865 9.5602 15.4946 9.50642 15.5212 9.46123L15.525 9.46498ZM15.09 9.17998L15.1837 9.22873C15.1721 9.25462 15.1695 9.28366 15.1762 9.31123C15.1858 9.33696 15.2045 9.3583 15.2287 9.37123C15.2587 9.38998 15.2812 9.39748 15.3037 9.39373C15.3262 9.39373 15.3412 9.38248 15.3525 9.36373C15.3582 9.3548 15.3608 9.34427 15.36 9.33373C15.36 9.32248 15.3525 9.30748 15.3412 9.29623C15.322 9.27304 15.302 9.25052 15.2812 9.22873C15.24 9.18748 15.2137 9.15373 15.2062 9.12373C15.2001 9.10443 15.1983 9.08402 15.2009 9.06394C15.2035 9.04386 15.2104 9.02458 15.2212 9.00748C15.2355 8.98433 15.2564 8.96604 15.2812 8.95498C15.307 8.9431 15.3357 8.93918 15.3637 8.94373C15.3984 8.94957 15.4316 8.96232 15.4612 8.98123C15.5175 9.01873 15.5512 9.05623 15.5625 9.09748C15.5693 9.11855 15.5715 9.14086 15.5689 9.16287C15.5663 9.18487 15.559 9.20606 15.5475 9.22498L15.4537 9.17248C15.465 9.14623 15.4687 9.12748 15.4612 9.10873C15.4537 9.08998 15.4387 9.07123 15.4125 9.05623C15.3917 9.04133 15.3668 9.03345 15.3412 9.03373C15.3351 9.03414 15.3291 9.03607 15.3239 9.03934C15.3187 9.04261 15.3143 9.04712 15.3112 9.05248C15.3037 9.06373 15.3037 9.07498 15.3075 9.08998C15.3112 9.10498 15.3337 9.13498 15.3712 9.17248C15.4087 9.20998 15.435 9.23998 15.4462 9.26248C15.4613 9.28599 15.4693 9.31332 15.4693 9.34123C15.4693 9.36913 15.4613 9.39646 15.4462 9.41998C15.4301 9.44614 15.4066 9.46699 15.3787 9.47998C15.3506 9.49292 15.3192 9.49685 15.2887 9.49123C15.2502 9.4847 15.2132 9.47069 15.18 9.44998C15.1315 9.42413 15.0942 9.38145 15.075 9.32998C15.0605 9.27991 15.0659 9.22618 15.09 9.17998V9.17998ZM14.5575 9.03748L14.8312 8.58748L15.1612 8.79373L15.1162 8.86873L14.8762 8.71873L14.8162 8.81998L15.0412 8.95873L14.9925 9.03373L14.7675 8.89498L14.6925 9.01873L14.9437 9.16873L14.8987 9.24373L14.5612 9.03748H14.5575ZM13.7812 8.39998L13.8225 8.32498L14.025 8.42623L13.9312 8.61373C13.9012 8.62123 13.8637 8.62498 13.8187 8.62123C13.7755 8.61646 13.7336 8.60375 13.695 8.58373C13.6496 8.56162 13.6108 8.528 13.5825 8.48623C13.5567 8.44741 13.5436 8.40155 13.545 8.35498C13.5469 8.30649 13.5597 8.25907 13.5825 8.21623C13.605 8.17113 13.6386 8.13244 13.68 8.10373C13.7196 8.07632 13.7668 8.0619 13.815 8.06248C13.8525 8.06248 13.89 8.07373 13.935 8.09998C13.995 8.12623 14.0325 8.16373 14.0512 8.20498C14.0707 8.24592 14.0747 8.29255 14.0625 8.33623L13.9612 8.30623C13.9674 8.28111 13.9648 8.25462 13.9537 8.23123C13.9425 8.20873 13.9237 8.19373 13.8937 8.17873C13.8763 8.16875 13.8569 8.16258 13.8368 8.16064C13.8168 8.1587 13.7966 8.16103 13.7775 8.16748C13.74 8.17873 13.7062 8.21248 13.68 8.26498C13.6537 8.31748 13.6425 8.36623 13.6537 8.40748C13.6589 8.42704 13.6683 8.44523 13.6813 8.46078C13.6942 8.47633 13.7104 8.48885 13.7287 8.49748C13.7475 8.50873 13.77 8.51623 13.7925 8.51623C13.8149 8.51962 13.8376 8.51962 13.86 8.51623L13.89 8.45623L13.7812 8.39998V8.39998ZM10.3987 7.56373L10.4737 7.03873L10.6312 7.06498L10.6725 7.43248L10.8187 7.09498L10.9762 7.11748L10.9012 7.63498L10.8 7.61998L10.8637 7.21123L10.6987 7.60498L10.5975 7.58998L10.5562 7.16623L10.4962 7.57873L10.3987 7.56373V7.56373ZM9.87 7.49998L9.91874 6.97498L10.305 7.01248L10.2975 7.10248L10.0162 7.07623L10.005 7.18873L10.2675 7.21498L10.2562 7.30498L9.99374 7.27873L9.9825 7.42123L10.275 7.44748L10.2675 7.53748L9.87 7.49998V7.49998Z" fill="#309E3A"/>
<path d="M8.11875 7.17375C8.11875 7.1175 8.13 7.07625 8.145 7.03875C8.15815 7.01208 8.17592 6.98795 8.1975 6.9675C8.21674 6.9481 8.2397 6.93279 8.265 6.9225C8.3025 6.91125 8.34 6.90375 8.3775 6.90375C8.45625 6.90375 8.51625 6.93375 8.565 6.97875C8.58821 7.00741 8.60546 7.04042 8.61577 7.07583C8.62607 7.11125 8.62921 7.14836 8.625 7.185C8.625 7.2675 8.59875 7.335 8.55 7.38375C8.52495 7.4069 8.49532 7.42454 8.46302 7.43552C8.43072 7.4465 8.39648 7.45058 8.3625 7.4475C8.32898 7.44784 8.29575 7.44136 8.2648 7.42847C8.23386 7.41558 8.20586 7.39654 8.1825 7.3725C8.13584 7.31727 8.11292 7.24582 8.11875 7.17375V7.17375Z" fill="#309E3A"/>
<path d="M8.22751 7.17372C8.22751 7.22997 8.23876 7.27497 8.26501 7.30872C8.29126 7.33872 8.32501 7.35747 8.37001 7.35747C8.38948 7.35883 8.409 7.35584 8.42717 7.3487C8.44533 7.34157 8.46167 7.33047 8.47501 7.31622C8.50126 7.28622 8.51251 7.24122 8.51626 7.17747C8.51626 7.11747 8.50876 7.07247 8.47876 7.04247C8.46654 7.02736 8.45112 7.01514 8.43361 7.00671C8.41611 6.99828 8.39694 6.99384 8.37751 6.99372C8.35778 6.99309 8.33816 6.99679 8.32001 7.00457C8.30187 7.01234 8.28566 7.024 8.27251 7.03872C8.24251 7.06872 8.23126 7.11372 8.22751 7.17372V7.17372Z" fill="#F7FFFF"/>
<path d="M8.7375 7.44376L8.745 6.91876H8.97C9.02625 6.91876 9.06375 6.92626 9.09 6.93751C9.11625 6.94501 9.135 6.96376 9.15 6.98626C9.165 7.00876 9.1725 7.03876 9.1725 7.07251C9.1728 7.10859 9.15939 7.14343 9.135 7.17001C9.10728 7.19598 9.07161 7.21184 9.03375 7.21501L9.09 7.26001C9.105 7.27501 9.12375 7.30501 9.14625 7.34626L9.21 7.45126H9.0825L9.0075 7.33126L8.955 7.25626C8.94591 7.24594 8.93427 7.23819 8.92125 7.23376C8.9042 7.22879 8.88652 7.22626 8.86875 7.22626H8.84625V7.44376H8.7375V7.44376Z" fill="#309E3A"/>
<path d="M8.85001 7.14379H8.92501C8.97751 7.14379 9.01126 7.14379 9.02251 7.13629C9.03376 7.13629 9.04501 7.12504 9.05251 7.11754C9.06001 7.11004 9.06376 7.09129 9.06376 7.08004C9.06376 7.05754 9.06001 7.04254 9.04876 7.03504C9.04126 7.02379 9.02626 7.01629 9.01126 7.01254H8.93626L8.85001 7.00879V7.14004V7.14379Z" fill="white"/>
<path d="M9.3375 6.94501L9.5325 6.95626C9.57375 6.95626 9.6075 6.96001 9.63 6.96751C9.65919 6.9781 9.68506 6.99621 9.705 7.02001C9.7266 7.04623 9.74199 7.077 9.75 7.11001C9.76125 7.14376 9.765 7.18501 9.76125 7.23376C9.76121 7.27203 9.75488 7.31004 9.7425 7.34626C9.7275 7.38376 9.705 7.41376 9.67875 7.43626C9.6569 7.45426 9.63126 7.46708 9.60375 7.47376C9.58125 7.48126 9.5475 7.48126 9.51 7.48126L9.31125 7.47001L9.3375 6.94501V6.94501Z" fill="#309E3A"/>
<path d="M9.43875 7.03876L9.42 7.38751H9.5625C9.58125 7.38751 9.59625 7.38001 9.6075 7.36876C9.61875 7.35751 9.63 7.34251 9.6375 7.32001C9.645 7.29751 9.6525 7.26376 9.6525 7.22251L9.64875 7.12876C9.64339 7.10898 9.63307 7.09091 9.61875 7.07626C9.60629 7.06373 9.59078 7.05468 9.57375 7.05001C9.54539 7.04369 9.51653 7.03993 9.4875 7.03876H9.43875V7.03876Z" fill="white"/>
<path d="M11.91 7.8825L12.0338 7.3725L12.1988 7.41L12.3188 7.4475C12.345 7.4625 12.3675 7.485 12.3788 7.51875C12.3938 7.54875 12.3938 7.5825 12.3863 7.62375C12.3788 7.65375 12.3675 7.68 12.3488 7.69875C12.335 7.71521 12.3178 7.72845 12.2984 7.73753C12.2789 7.7466 12.2577 7.75128 12.2363 7.75125C12.21 7.75125 12.1725 7.74375 12.1238 7.7325L12.06 7.71375L12.015 7.90875L11.91 7.8825V7.8825Z" fill="#309E3A"/>
<path d="M12.1125 7.48499L12.0825 7.62748L12.1388 7.64249C12.1763 7.64999 12.2063 7.65749 12.2213 7.65374C12.2358 7.65171 12.2494 7.64521 12.2602 7.63514C12.2709 7.62507 12.2783 7.61191 12.2813 7.59749C12.2813 7.57874 12.2813 7.56374 12.2738 7.54874C12.2655 7.53349 12.2523 7.52157 12.2363 7.51498L12.165 7.49623L12.1163 7.48499H12.1125Z" fill="white"/>
<path d="M12.3975 8.02875L12.5738 7.53375L12.78 7.60875C12.8363 7.6275 12.87 7.64625 12.8925 7.66125C12.9113 7.68 12.9263 7.69875 12.93 7.72875C12.9338 7.75875 12.9375 7.785 12.93 7.815C12.915 7.8525 12.8925 7.87875 12.8625 7.8975C12.8325 7.9125 12.795 7.91625 12.75 7.90875C12.765 7.9275 12.78 7.94625 12.7875 7.96875L12.8175 8.07L12.84 8.18625L12.7238 8.145L12.6863 8.01C12.6794 7.97947 12.6707 7.94941 12.66 7.92C12.655 7.90834 12.6473 7.89804 12.6375 7.89C12.63 7.87875 12.615 7.87125 12.5888 7.86375L12.57 7.85625L12.495 8.06625L12.3975 8.02875V8.02875Z" fill="#309E3A"/>
<path d="M12.6 7.7775L12.6713 7.80375C12.72 7.8225 12.75 7.83 12.765 7.83C12.7763 7.83 12.7875 7.83 12.7988 7.81875C12.81 7.81125 12.8175 7.8 12.8213 7.785C12.8288 7.77 12.8288 7.755 12.8213 7.74C12.8157 7.72546 12.805 7.71346 12.7913 7.70625L12.7163 7.68L12.6413 7.65375L12.5963 7.7775H12.6Z" fill="white"/>
<path d="M13.0125 8.01C13.0254 7.96609 13.0471 7.92526 13.0762 7.89C13.0952 7.86737 13.1181 7.84832 13.1437 7.83375C13.167 7.82061 13.1924 7.81173 13.2187 7.8075C13.2562 7.8075 13.2937 7.8075 13.335 7.8225C13.3685 7.83079 13.3999 7.84611 13.427 7.86744C13.4542 7.88878 13.4765 7.91564 13.4925 7.94625C13.5225 8.00625 13.5225 8.0775 13.5 8.16C13.4814 8.23087 13.4356 8.29153 13.3725 8.32875C13.3162 8.3625 13.2487 8.36625 13.1775 8.34375C13.1441 8.33523 13.1128 8.31983 13.0857 8.29851C13.0585 8.2772 13.0362 8.25046 13.02 8.22C13.005 8.18721 12.9966 8.15178 12.9953 8.11574C12.994 8.07971 12.9998 8.04377 13.0125 8.01V8.01Z" fill="#309E3A"/>
<path d="M13.1175 8.04001C13.1025 8.09626 13.0987 8.14501 13.1175 8.18251C13.1362 8.22001 13.1625 8.24251 13.2037 8.25751C13.2412 8.26876 13.2787 8.26501 13.3162 8.24251C13.3537 8.22376 13.3762 8.18251 13.395 8.12251C13.4137 8.06626 13.4137 8.02126 13.395 7.98376C13.3876 7.96597 13.3764 7.95002 13.3621 7.93706C13.3478 7.9241 13.3309 7.91444 13.3125 7.90876C13.294 7.90239 13.2744 7.90009 13.255 7.90204C13.2356 7.90398 13.2168 7.91011 13.2 7.92001C13.1625 7.94251 13.1362 7.98001 13.1175 8.04001V8.04001Z" fill="white"/>
<path d="M14.0363 8.74125L14.2763 8.27625L14.475 8.3775C14.5125 8.39547 14.5467 8.41955 14.5763 8.44875C14.595 8.4675 14.6063 8.49 14.6063 8.52C14.6063 8.55 14.6063 8.57625 14.5913 8.6025C14.5768 8.63621 14.55 8.66308 14.5163 8.6775C14.4788 8.685 14.4413 8.685 14.4 8.67C14.415 8.6925 14.4225 8.715 14.43 8.73375C14.4375 8.75625 14.4413 8.79 14.445 8.83875L14.4525 8.95875L14.34 8.9025L14.325 8.76375C14.3232 8.73229 14.3195 8.70098 14.3138 8.67C14.3112 8.65597 14.3047 8.64296 14.295 8.6325L14.25 8.60625L14.2313 8.595L14.13 8.79L14.0363 8.74125V8.74125Z" fill="#309E3A"/>
<path d="M14.2688 8.52002L14.34 8.55752C14.385 8.58002 14.415 8.59502 14.4263 8.59502C14.4375 8.59502 14.4525 8.59502 14.4638 8.58752C14.475 8.58377 14.4825 8.57252 14.49 8.55752C14.4975 8.54252 14.5013 8.52752 14.4975 8.51252C14.4929 8.49759 14.4837 8.48448 14.4713 8.47502C14.4493 8.46155 14.4268 8.44904 14.4038 8.43752L14.3288 8.40002L14.2688 8.52002V8.52002Z" fill="white"/>
<path d="M15.9788 9.70127C16.003 9.66272 16.0349 9.62953 16.0725 9.60377C16.0977 9.58762 16.1257 9.57619 16.155 9.57002C16.1822 9.56447 16.2103 9.56447 16.2375 9.57002C16.275 9.57752 16.3088 9.59252 16.3425 9.61502C16.3717 9.6332 16.3968 9.65727 16.4161 9.68567C16.4355 9.71408 16.4487 9.74622 16.455 9.78002C16.4663 9.84377 16.4475 9.91502 16.4025 9.98627C16.3649 10.0482 16.3042 10.0928 16.2338 10.11C16.2002 10.1173 16.1655 10.1174 16.1318 10.1102C16.0982 10.1031 16.0665 10.089 16.0388 10.0688C16.0096 10.0506 15.9845 10.0265 15.9651 9.99812C15.9458 9.96972 15.9325 9.93758 15.9263 9.90377C15.915 9.83627 15.9338 9.76877 15.9788 9.70127Z" fill="#309E3A"/>
<path d="M16.0725 9.76126C16.035 9.81001 16.0237 9.85501 16.0312 9.89626C16.034 9.91526 16.0408 9.93344 16.0511 9.94961C16.0615 9.96578 16.0752 9.97955 16.0912 9.99001C16.1287 10.0163 16.1662 10.0238 16.2037 10.0125C16.2412 10.0013 16.2787 9.97501 16.3125 9.92251C16.3462 9.87001 16.3612 9.82501 16.3537 9.78751C16.35 9.75001 16.3275 9.71626 16.2937 9.69001C16.26 9.66376 16.2187 9.66001 16.1812 9.67126C16.1437 9.67876 16.1062 9.70876 16.0687 9.76126H16.0725Z" fill="white"/>
<path d="M11.3175 7.66877L11.4038 7.30127L11.6738 7.36502L11.6625 7.42502L11.4638 7.38002L11.445 7.46252L11.6288 7.50377L11.6138 7.56752L11.43 7.52252L11.4075 7.62377L11.6138 7.67252L11.5988 7.73252L11.3175 7.66877V7.66877Z" fill="#309E3A"/>
</svg>
