<svg width="24" height="18" viewBox="0 0 24 18" fill="none" xmlns="http://www.w3.org/2000/svg">
<rect width="24" height="18" fill="white"/>
<path fill-rule="evenodd" clip-rule="evenodd" d="M0 0H24V1.3875H0V0ZM0 2.77125H24V4.15875H0V2.77125ZM0 5.53875H24V6.92625H0V5.53875ZM0 8.30625H24V9.69375H0V8.30625ZM0 11.0813H24V12.4613H0V11.0813ZM0 13.845H24V15.2325H0V13.845ZM0 16.6125H24V18H0V16.6125Z" fill="#BD3D44"/>
<path fill-rule="evenodd" clip-rule="evenodd" d="M0 0H13.68V9.69375H0V0Z" fill="#192F5D"/>
<path fill-rule="evenodd" clip-rule="evenodd" d="M1.13999 0.412476L1.26749 0.798726H1.66499L1.34249 1.03498L1.46624 1.42123L1.13999 1.18123L0.817487 1.41748L0.937487 1.03498L0.611237 0.798726H1.01999L1.13999 0.412476ZM3.41999 0.412476L3.54374 0.798726H3.94874L3.62249 1.03498L3.74249 1.42123L3.41999 1.18123L3.09374 1.41748L3.21749 1.03498L2.89499 0.798726H3.29249L3.41999 0.412476ZM5.69999 0.412476L5.82374 0.798726H6.22499L5.90249 1.03498L6.02624 1.42123L5.69999 1.18123L5.37374 1.41748L5.49749 1.03498L5.17124 0.798726H5.57624L5.69999 0.412476ZM7.97999 0.412476L8.10374 0.798726H8.50874L8.18249 1.03498L8.30624 1.42123L7.97999 1.18123L7.65374 1.41748L7.78124 1.03498L7.45124 0.798726H7.85249L7.97999 0.412476ZM10.26 0.412476L10.3837 0.798726H10.785L10.4625 1.03498L10.5862 1.42123L10.26 1.18123L9.93374 1.41748L10.0575 1.03498L9.73499 0.798726H10.1362L10.26 0.412476ZM12.54 0.412476L12.6637 0.798726H13.0687L12.7387 1.03498L12.8662 1.42123L12.54 1.18123L12.2137 1.41748L12.3412 1.03498L12.0112 0.798726H12.4162L12.54 0.412476ZM2.27999 1.38748L2.40374 1.76998H2.81249L2.48624 2.00248L2.60624 2.38873L2.28749 2.15248L1.96124 2.38873L2.07749 2.00248L1.76249 1.76998H2.16374L2.27999 1.38748ZM4.55999 1.38748L4.68749 1.76998H5.08874L4.75874 2.00248L4.88624 2.38873L4.55999 2.15248L4.23374 2.38873L4.35749 2.00248L4.03124 1.76998H4.43624L4.55999 1.38748ZM6.83999 1.38748L6.96374 1.76998H7.36874L7.04249 2.00248L7.16624 2.38873L6.83999 2.15248L6.51374 2.38873L6.63749 2.00248L6.31499 1.76998H6.71249L6.83999 1.38748ZM9.11999 1.38748L9.24749 1.76998H9.64874L9.31874 2.00248L9.44624 2.38873L9.11999 2.15248L8.79749 2.38873L8.91749 2.00248L8.59124 1.76998H8.99999L9.11999 1.38748ZM11.4 1.38748L11.5237 1.76998H11.9287L11.6025 2.00248L11.7262 2.38873L11.4 2.15248L11.0737 2.38873L11.1975 2.00248L10.875 1.76998H11.2762L11.4 1.38748ZM1.13999 2.34748L1.26749 2.73748H1.66499L1.34249 2.97373L1.46624 3.35623L1.13999 3.11998L0.817487 3.35623L0.937487 2.97373L0.611237 2.73748H1.01999L1.13999 2.34748ZM3.41999 2.34748L3.54374 2.73748H3.94874L3.62249 2.97373L3.74249 3.35623L3.41999 3.11998L3.09374 3.35623L3.21749 2.96998L2.89499 2.73373H3.29249L3.41999 2.34748ZM5.69999 2.34748L5.82374 2.73373H6.22499L5.90249 2.96998L6.02624 3.35248L5.69999 3.11623L5.37374 3.35248L5.49749 2.96623L5.17124 2.72998H5.57624L5.69999 2.34748ZM7.97999 2.34748L8.10374 2.73373H8.50874L8.18249 2.96998L8.30624 3.35248L7.97999 3.11623L7.65374 3.35248L7.78124 2.96623L7.45124 2.72998H7.85249L7.97999 2.34748ZM10.26 2.34748L10.3837 2.73373H10.785L10.4625 2.96998L10.5862 3.35248L10.26 3.11623L9.93374 3.35248L10.0575 2.96623L9.73499 2.72998H10.1362L10.26 2.34748ZM12.54 2.34748L12.6637 2.73373H13.0687L12.7387 2.96998L12.8662 3.35248L12.54 3.11623L12.2137 3.35248L12.3412 2.96623L12.0112 2.72998H12.4162L12.54 2.34748ZM2.27999 3.32248L2.40374 3.70498H2.81249L2.48624 3.94123L2.60999 4.32748L2.28374 4.08748L1.95749 4.32373L2.08124 3.94123L1.75874 3.70498H2.15999L2.27999 3.32248ZM4.55999 3.32248L4.68749 3.70498H5.08874L4.75874 3.94123L4.88624 4.32748L4.55999 4.08748L4.23374 4.32373L4.35749 3.94123L4.03124 3.70498H4.43624L4.55999 3.32248ZM6.83999 3.32248L6.96374 3.70498H7.36874L7.04249 3.94123L7.16624 4.32748L6.83999 4.08748L6.51374 4.32373L6.63749 3.94123L6.31499 3.70498H6.71249L6.83999 3.32248ZM9.11999 3.32248L9.24749 3.70498H9.64874L9.32249 3.94123L9.44624 4.32748L9.11999 4.08748L8.79749 4.32373L8.91749 3.94123L8.59124 3.70498H8.99999L9.11999 3.32248ZM11.4 3.32248L11.5237 3.70498H11.9287L11.6025 3.94123L11.7262 4.32748L11.4 4.08748L11.0737 4.32373L11.1975 3.94123L10.875 3.70498H11.2762L11.4 3.32248ZM1.13999 4.29373L1.26749 4.67623H1.66499L1.34249 4.91248L1.46624 5.29873L1.13999 5.05873L0.817487 5.29498L0.937487 4.91248L0.611237 4.67623H1.01999L1.13999 4.29373ZM3.41999 4.29373L3.54374 4.67623H3.94874L3.62249 4.91248L3.74249 5.29498L3.41999 5.05873L3.09374 5.29498L3.21749 4.91248L2.89499 4.67623H3.29249L3.41999 4.29373ZM5.69999 4.29373L5.82374 4.67623H6.22499L5.90249 4.91248L6.02624 5.29873L5.69999 5.05873L5.37374 5.29498L5.49749 4.91248L5.17124 4.67623H5.57624L5.69999 4.29373ZM7.97999 4.29373L8.10374 4.67623H8.50874L8.18249 4.91248L8.30624 5.29873L7.97999 5.05873L7.65374 5.29498L7.78124 4.91248L7.45124 4.67623H7.85249L7.97999 4.29373ZM10.26 4.29373L10.3837 4.67623H10.785L10.4625 4.91248L10.5862 5.29873L10.26 5.05873L9.93374 5.29498L10.0575 4.91248L9.73499 4.67623H10.1362L10.26 4.29373ZM12.54 4.29373L12.6637 4.67623H13.0687L12.7387 4.91248L12.8662 5.29873L12.54 5.05873L12.2137 5.29498L12.3375 4.91248L12.0075 4.67623H12.4125L12.54 4.29373ZM2.27999 5.26123L2.40374 5.64748H2.81249L2.48624 5.87998L2.60999 6.26623L2.28374 6.02623L1.95749 6.26623L2.08124 5.87998L1.75874 5.64373H2.15999L2.27999 5.26123ZM4.55999 5.26123L4.68749 5.64748H5.08874L4.75874 5.87998L4.88624 6.26623L4.55999 6.02623L4.23374 6.26623L4.35749 5.87998L4.03124 5.64373H4.43624L4.55999 5.26123ZM6.83999 5.26123L6.96374 5.64748H7.36874L7.04249 5.87998L7.16624 6.26623L6.83999 6.02623L6.51374 6.26623L6.63749 5.87998L6.31499 5.64373H6.71249L6.83999 5.26123ZM9.11999 5.26123L9.24749 5.64748H9.64874L9.32249 5.87998L9.44624 6.26623L9.11999 6.02623L8.79749 6.26623L8.91749 5.87998L8.59124 5.64373H8.99999L9.11999 5.26123ZM11.4 5.26123L11.5237 5.64748H11.9287L11.6025 5.87998L11.7262 6.26623L11.4 6.02623L11.0737 6.26623L11.1975 5.87998L10.875 5.64373H11.2762L11.4 5.26123ZM1.13999 6.22873L1.26749 6.61498H1.66499L1.34249 6.85123L1.46624 7.22998L1.13999 6.99748L0.817487 7.22998L0.937487 6.84748L0.611237 6.61123H1.01999L1.13999 6.22873ZM3.41999 6.22873L3.54374 6.61498H3.94874L3.62249 6.85123L3.74624 7.22998L3.41999 6.99748L3.09374 7.22998L3.22124 6.84748L2.89499 6.61123H3.29249L3.41999 6.22873ZM5.69999 6.22873L5.82374 6.61498H6.22499L5.90249 6.85123L6.02624 7.22998L5.69999 6.99748L5.37374 7.22998L5.49749 6.84748L5.17124 6.61123H5.57624L5.69999 6.22873ZM7.97999 6.22873L8.10374 6.61498H8.50874L8.18249 6.85123L8.30624 7.22998L7.97999 6.99748L7.65374 7.22998L7.78124 6.84748L7.45124 6.61123H7.85249L7.97999 6.22873ZM10.26 6.22873L10.3837 6.61498H10.785L10.4625 6.85123L10.5862 7.22998L10.26 6.99748L9.93374 7.22998L10.0575 6.84748L9.73499 6.61123H10.1362L10.26 6.22873ZM12.54 6.22873L12.6637 6.61498H13.0687L12.7387 6.85123L12.8662 7.22998L12.54 6.99748L12.2137 7.22998L12.3412 6.84748L12.0112 6.61123H12.4162L12.54 6.22873ZM2.27999 7.19998L2.40374 7.58248H2.81249L2.48624 7.81873L2.60999 8.20498L2.28374 7.96498L1.95749 8.20123L2.08124 7.81873L1.75874 7.58248H2.15999L2.27999 7.19998ZM4.55999 7.19998L4.68749 7.58248H5.08874L4.75874 7.81873L4.88624 8.20498L4.55999 7.96498L4.23374 8.20123L4.35749 7.81873L4.03124 7.58248H4.43624L4.55999 7.19998ZM6.83999 7.19998L6.96374 7.58248H7.36874L7.04249 7.81873L7.16624 8.20498L6.83999 7.96498L6.51374 8.20123L6.63749 7.81873L6.31499 7.58248H6.71249L6.83999 7.19998ZM9.11999 7.19998L9.24749 7.58248H9.64874L9.32249 7.81873L9.44624 8.20498L9.11999 7.96498L8.79749 8.20123L8.91749 7.81873L8.59124 7.58248H8.99999L9.11999 7.19998ZM11.4 7.19998L11.5237 7.58248H11.9287L11.6025 7.81873L11.7262 8.20498L11.4 7.96498L11.0737 8.20123L11.1975 7.81873L10.875 7.58248H11.2762L11.4 7.19998ZM1.13999 8.17123L1.26749 8.55373H1.66499L1.34249 8.78998L1.46624 9.17248L1.13999 8.93623L0.817487 9.17248L0.937487 8.78623L0.611237 8.54998H1.01999L1.13999 8.17123ZM3.41999 8.17123L3.54374 8.55373H3.94874L3.62249 8.78998L3.74624 9.17248L3.41999 8.93623L3.09374 9.17248L3.22124 8.78623L2.89499 8.54998H3.29249L3.41999 8.17123ZM5.69999 8.17123L5.82374 8.55373H6.22499L5.90999 8.78998L6.03374 9.17248L5.70749 8.93623L5.38124 9.17248L5.50499 8.78623L5.17874 8.54998H5.58374L5.69999 8.17123ZM7.97999 8.17123L8.10374 8.55373H8.50874L8.18249 8.78998L8.30624 9.17248L7.97999 8.93623L7.65374 9.17248L7.78124 8.78623L7.45124 8.54998H7.85249L7.97999 8.17123ZM10.26 8.17123L10.3837 8.55373H10.785L10.4625 8.78998L10.5862 9.17248L10.26 8.93623L9.93374 9.17248L10.0575 8.78623L9.73499 8.54998H10.1362L10.26 8.17123ZM12.54 8.17123L12.6637 8.55373H13.0687L12.7387 8.78998L12.8662 9.17248L12.54 8.93623L12.2137 9.17248L12.3412 8.78623L12.0112 8.54998H12.4162L12.54 8.17123Z" fill="white"/>
</svg>
