<svg width="24" height="24" viewBox="0 0 24 24" fill="none" xmlns="http://www.w3.org/2000/svg">
<path d="M7.49514 14.8521C6.82849 14.4722 6 14.9536 6 15.7209V16.9995C6 17.3587 6.19272 17.6904 6.50486 17.8683L11.5049 20.7178C11.8118 20.8927 12.1882 20.8927 12.4951 20.7178L17.4951 17.8683C17.8073 17.6904 18 17.3587 18 16.9995V15.7209C18 14.9536 17.1715 14.4722 16.5049 14.8521L12.4951 17.1373C12.1882 17.3122 11.8118 17.3122 11.5049 17.1373L7.49514 14.8521Z" fill="#374047"/>
<path d="M12.9577 3.52238C12.3607 3.19677 11.6393 3.19677 11.0423 3.52238L2.60947 8.1221C1.91461 8.50112 1.91461 9.49888 2.60948 9.8779L11.0423 14.4776C11.6393 14.8032 12.3607 14.8032 12.9577 14.4776L21.3905 9.8779C22.0854 9.49888 22.0854 8.50112 21.3905 8.1221L12.9577 3.52238Z" fill="#374047"/>
<path d="M4 9H3V19H4V9Z" fill="#374047"/>
<path d="M3.5 21C4.32843 21 5 20.3284 5 19.5C5 18.6716 4.32843 18 3.5 18C2.67157 18 2 18.6716 2 19.5C2 20.3284 2.67157 21 3.5 21Z" fill="#374047"/>
</svg>
