<svg width="24" height="24" viewBox="0 0 24 24" fill="none" xmlns="http://www.w3.org/2000/svg">
<path d="M12.4345 22C15.0367 21.9972 17.5448 21.053 19.4709 19.3511C19.2449 19.3511 19.019 19.3511 18.793 19.3511C16.7228 19.349 14.6937 18.7884 12.9314 17.7316C11.1692 16.6748 9.7429 15.1633 8.81115 13.3651C7.87939 11.567 7.47872 9.55263 7.6537 7.54618C7.82867 5.53974 8.57244 3.61984 9.80227 2C7.34616 2.62564 5.20825 4.09966 3.78797 6.14665C2.3677 8.19364 1.76222 10.6736 2.08467 13.1231C2.40712 15.5726 3.63543 17.8242 5.54011 19.4571C7.44479 21.09 9.89554 21.9926 12.4345 21.9961V22Z" fill="#374047"/>
<path d="M15.249 5.18491C15.2056 5.17691 15.1646 5.15961 15.129 5.13427C15.0933 5.10892 15.0639 5.07617 15.0429 5.03839L14.3491 3.8161L13.6594 5.03839C13.6384 5.07617 13.609 5.10892 13.5733 5.13427C13.5376 5.15961 13.4966 5.17691 13.4532 5.18491L12.046 5.4471L13.0251 6.46503C13.0561 6.4956 13.0794 6.53275 13.0932 6.57356C13.107 6.61438 13.1108 6.65774 13.1044 6.70023L12.926 8.08061L14.2223 7.49067C14.2617 7.47165 14.3051 7.46175 14.3491 7.46175C14.3932 7.46175 14.4366 7.47165 14.476 7.49067L15.7762 8.08061L15.5979 6.70023C15.5916 6.65805 15.595 6.61502 15.6081 6.57432C15.6211 6.53362 15.6434 6.49627 15.6732 6.46503L16.6563 5.4471L15.249 5.18491ZM21.4054 10.8645L21.2904 9.96995C21.2846 9.92747 21.2887 9.88427 21.3025 9.84355C21.3162 9.80283 21.3392 9.76564 21.3697 9.73474L22 9.07926L21.0922 8.91732C21.0491 8.90858 21.0084 8.89099 20.9729 8.86572C20.9373 8.84045 20.9077 8.80809 20.8861 8.7708L20.4421 7.99964L19.9941 8.7708C19.9737 8.8083 19.945 8.84091 19.9101 8.86626C19.8751 8.89161 19.8347 8.90905 19.792 8.91732L18.8842 9.08312L19.5264 9.73474C19.5562 9.76609 19.5787 9.80333 19.5924 9.84393C19.6061 9.88452 19.6106 9.9275 19.6056 9.96995L19.4907 10.8645L20.3271 10.4789C20.3669 10.4612 20.4102 10.4521 20.454 10.4521C20.4977 10.4521 20.541 10.4612 20.5808 10.4789L21.4054 10.8645ZM13.699 13.2589C13.7286 13.2903 13.7507 13.3277 13.7637 13.3683C13.7767 13.409 13.7804 13.452 13.7743 13.4941L13.6594 14.3848L14.4958 13.9993C14.5355 13.9812 14.5788 13.9719 14.6227 13.9723C14.6665 13.9715 14.71 13.9808 14.7495 13.9993L15.586 14.3848L15.471 13.4941C15.4658 13.4517 15.4702 13.4086 15.4839 13.368C15.4976 13.3274 15.5202 13.2901 15.5503 13.2589L16.1846 12.6035L15.2768 12.4338C15.2338 12.426 15.1931 12.4092 15.1576 12.3845C15.122 12.3599 15.0923 12.328 15.0706 12.2911L14.6227 11.5007L14.1787 12.2911C14.157 12.328 14.1274 12.3599 14.0918 12.3845C14.0562 12.4092 14.0155 12.426 13.9725 12.4338L13.0648 12.6035L13.699 13.2589Z" fill="#374047"/>
</svg>
