<svg width="24" height="24" viewBox="0 0 24 24" fill="none" xmlns="http://www.w3.org/2000/svg">
<path d="M6.5 3L3 10H10L6.5 3Z" stroke="white" stroke-width="2" stroke-linecap="round" stroke-linejoin="round"/>
<path d="M17.5 21C19.433 21 21 19.433 21 17.5C21 15.567 19.433 14 17.5 14C15.567 14 14 15.567 14 17.5C14 19.433 15.567 21 17.5 21Z" stroke="white" stroke-width="2" stroke-linecap="round" stroke-linejoin="round"/>
<path d="M8.83333 14H4.16667C3.52233 14 3 14.5223 3 15.1667V19.8333C3 20.4777 3.52233 21 4.16667 21H8.83333C9.47767 21 10 20.4777 10 19.8333V15.1667C10 14.5223 9.47767 14 8.83333 14Z" stroke="white" stroke-width="2" stroke-linecap="round" stroke-linejoin="round"/>
<path d="M20.4184 6.75257L17.5032 10L14.5881 6.75257C14.3958 6.54211 14.2443 6.28915 14.1432 6.00962C14.0422 5.73009 13.9936 5.43005 14.0007 5.12838C14.0077 4.82671 14.0703 4.52996 14.1843 4.2568C14.2983 3.98365 14.4614 3.74001 14.6633 3.54123C14.8652 3.34246 15.1014 3.19284 15.3572 3.10182C15.613 3.01079 15.8828 2.98032 16.1496 3.01233C16.4164 3.04434 16.6744 3.13814 16.9073 3.28781C17.1403 3.43748 17.3432 3.63978 17.5032 3.88199C17.664 3.64154 17.8671 3.441 18.0999 3.29292C18.3327 3.14484 18.5902 3.0524 18.8562 3.02139C19.1223 2.99038 19.3911 3.02147 19.646 3.11271C19.9008 3.20395 20.1362 3.35337 20.3374 3.55163C20.5385 3.74989 20.7011 3.99272 20.815 4.26492C20.9289 4.53711 20.9916 4.83282 20.9992 5.13353C21.0068 5.43424 20.9592 5.73348 20.8592 6.01252C20.7593 6.29155 20.6092 6.54439 20.4184 6.75519" stroke="white" stroke-width="2" stroke-linecap="round" stroke-linejoin="round"/>
</svg>
