<svg width="24" height="24" viewBox="0 0 24 24" fill="none" xmlns="http://www.w3.org/2000/svg">
<path d="M21.9257 12.7422C21.1464 10.9062 20.1074 6.84375 19.2167 5.47656C17.8066 3.36719 15.5058 2 12.9082 2H10.459C6.56249 2 3.18555 5.16406 3.03711 9.22656C3.03711 9.34375 3 9.42188 3 9.53906C3 11.7266 3.92773 13.7187 5.4121 15.086V21.375C5.4121 21.7265 5.67187 22 6.00585 22H6.5996C6.89647 22 7.19335 21.7265 7.19335 21.375V14.2656L6.5996 13.7188C4.85546 12.0391 4.22461 9.34375 5.37499 6.96094C6.33983 5.00781 8.34373 3.875 10.4219 3.875H12.9082C14.9121 3.91406 16.6563 4.92969 17.7324 6.53125C18.1777 7.15625 18.7714 9.10938 19.2538 10.5156C19.4766 11.2969 19.7363 12 19.9589 12.625H17.8808V17C17.8808 17.3515 17.5839 17.625 17.2871 17.625H14.3183V21.375C14.3183 21.7265 14.5781 22 14.9121 22H15.5058C15.8027 22 16.0996 21.7265 16.0996 21.375V19.5H17.2871C18.5859 19.5 19.6621 18.4062 19.6621 17V14.5H20.8496C21.4804 14.5 22 13.9531 22 13.25C22 13.0938 21.9628 12.8984 21.9257 12.7422ZM14.6522 9.5C15.4316 9.5 16.0996 8.875 16.0996 8.09375C16.0996 7.27344 15.4316 6.64844 14.6522 6.64844H14.5781C14.3554 6.0625 13.836 5.63281 13.2422 5.63281C12.9824 5.63281 12.7226 5.75 12.5371 5.86719C12.2773 5.4375 11.832 5.125 11.3496 5.125C10.8301 5.125 10.3847 5.4375 10.125 5.86719C9.93943 5.75 9.67967 5.63281 9.4199 5.63281C8.64061 5.63281 8.00975 6.33594 8.00975 7.15625C7.23046 7.15625 6.5996 7.82031 6.5996 8.64062C6.5996 9.30469 7.0078 9.85156 7.56444 10.0469C7.56444 10.0859 7.52733 10.125 7.52733 10.125C7.52733 10.9844 8.15819 11.6484 8.97459 11.6484C9.12303 11.6484 9.27147 11.6094 9.4199 11.5312V14H11.3496V11.5312C11.4609 11.6094 11.6465 11.6484 11.7949 11.6484C12.5742 11.6484 13.2422 10.9844 13.2422 10.125C13.2422 9.92969 13.1679 9.69531 13.0937 9.5H14.6522Z" fill="white"/>
</svg>
