<svg width="24" height="24" viewBox="0 0 24 24" fill="none" xmlns="http://www.w3.org/2000/svg">
<path d="M11.9889 2.00009C11.7998 2.00304 11.6197 2.08086 11.488 2.21647C11.3564 2.35208 11.2839 2.5344 11.2864 2.72341V4.86413C11.2851 4.95868 11.3026 5.05256 11.3378 5.14031C11.3731 5.22806 11.4254 5.30792 11.4918 5.37526C11.5582 5.4426 11.6373 5.49607 11.7246 5.53257C11.8118 5.56907 11.9054 5.58786 12 5.58786C12.0946 5.58786 12.1882 5.56907 12.2754 5.53257C12.3627 5.49607 12.4418 5.4426 12.5082 5.37526C12.5746 5.30792 12.6269 5.22806 12.6622 5.14031C12.6974 5.05256 12.7149 4.95868 12.7136 4.86413V2.72341C12.7149 2.62795 12.697 2.53319 12.661 2.44475C12.6251 2.35631 12.5717 2.27598 12.5041 2.20854C12.4365 2.14109 12.3561 2.08789 12.2676 2.05208C12.1791 2.01628 12.0843 1.9986 11.9889 2.00009ZM5.43302 4.72058C5.29119 4.72089 5.15267 4.76346 5.03514 4.84286C4.91761 4.92225 4.8264 5.03486 4.77316 5.16633C4.71992 5.29779 4.70705 5.44213 4.73621 5.58094C4.76537 5.71974 4.83523 5.84671 4.93687 5.94563L6.4504 7.45919C6.51615 7.52767 6.59491 7.58234 6.68205 7.62001C6.7692 7.65767 6.86298 7.67757 6.95791 7.67853C7.05285 7.6795 7.14702 7.66151 7.23491 7.62563C7.3228 7.58974 7.40265 7.53668 7.46978 7.46955C7.53691 7.40242 7.58997 7.32257 7.62586 7.23467C7.66174 7.14678 7.67973 7.05261 7.67876 6.95767C7.6778 6.86274 7.6579 6.76895 7.62024 6.68181C7.58257 6.59466 7.5279 6.5159 7.45942 6.45015L5.94589 4.9366C5.87923 4.86808 5.79948 4.81364 5.71138 4.77653C5.62328 4.73943 5.52862 4.7204 5.43302 4.72058V4.72058ZM18.5447 4.72058C18.3593 4.7261 18.1834 4.80358 18.0541 4.9366L16.5406 6.45015C16.4721 6.5159 16.4174 6.59466 16.3798 6.68181C16.3421 6.76895 16.3222 6.86274 16.3212 6.95767C16.3203 7.05261 16.3383 7.14678 16.3741 7.23467C16.41 7.32256 16.4631 7.40242 16.5302 7.46955C16.5974 7.53668 16.6772 7.58974 16.7651 7.62562C16.853 7.66151 16.9472 7.6795 17.0421 7.67853C17.137 7.67757 17.2308 7.65767 17.3179 7.62001C17.4051 7.58234 17.4838 7.52767 17.5496 7.45919L19.0631 5.94563C19.1662 5.8454 19.2367 5.71636 19.2652 5.57542C19.2937 5.43447 19.279 5.2882 19.2229 5.15577C19.1669 5.02334 19.0721 4.91094 18.9511 4.83328C18.8301 4.75562 18.6884 4.71634 18.5447 4.72058ZM12 7.00484C9.24138 7.00484 7.00508 9.24117 7.00508 11.9998C7.00508 14.7585 9.24138 16.9948 12 16.9948C14.7586 16.9948 16.9949 14.7585 16.9949 11.9998C16.9949 9.24117 14.7586 7.00484 12 7.00484ZM2.72372 11.2863C2.62917 11.2849 2.53529 11.3024 2.44754 11.3377C2.3598 11.3729 2.27994 11.4253 2.2126 11.4917C2.14526 11.5581 2.09179 11.6372 2.05529 11.7244C2.01879 11.8117 2 11.9053 2 11.9998C2 12.0944 2.01879 12.188 2.05529 12.2753C2.09179 12.3625 2.14526 12.4416 2.2126 12.508C2.27994 12.5744 2.3598 12.6268 2.44754 12.662C2.53529 12.6973 2.62917 12.7147 2.72372 12.7134H4.8644C4.95896 12.7147 5.05284 12.6973 5.14058 12.662C5.22833 12.6268 5.30819 12.5744 5.37553 12.508C5.44286 12.4416 5.49634 12.3625 5.53283 12.2753C5.56933 12.188 5.58812 12.0944 5.58812 11.9998C5.58812 11.9053 5.56933 11.8117 5.53283 11.7244C5.49634 11.6372 5.44286 11.5581 5.37553 11.4917C5.30819 11.4253 5.22833 11.3729 5.14058 11.3377C5.05284 11.3024 4.95896 11.2849 4.8644 11.2863H2.72372ZM19.1356 11.2863C19.041 11.2849 18.9472 11.3024 18.8594 11.3377C18.7717 11.3729 18.6918 11.4253 18.6245 11.4917C18.5571 11.5581 18.5037 11.6372 18.4672 11.7244C18.4307 11.8117 18.4119 11.9053 18.4119 11.9998C18.4119 12.0944 18.4307 12.188 18.4672 12.2753C18.5037 12.3625 18.5571 12.4416 18.6245 12.508C18.6918 12.5744 18.7717 12.6268 18.8594 12.662C18.9472 12.6973 19.041 12.7147 19.1356 12.7134H21.2763C21.3708 12.7147 21.4647 12.6973 21.5525 12.662C21.6402 12.6268 21.7201 12.5744 21.7874 12.508C21.8547 12.4416 21.9082 12.3625 21.9447 12.2753C21.9812 12.188 22 12.0944 22 11.9998C22 11.9053 21.9812 11.8117 21.9447 11.7244C21.9082 11.6372 21.8547 11.5581 21.7874 11.4917C21.7201 11.4253 21.6402 11.3729 21.5525 11.3377C21.4647 11.3024 21.3708 11.2849 21.2763 11.2863H19.1356ZM6.94097 16.3245C6.75559 16.33 6.57964 16.4075 6.4504 16.5405L4.93687 18.054C4.86839 18.1198 4.81372 18.1986 4.77606 18.2857C4.73839 18.3728 4.7185 18.4666 4.71753 18.5616C4.71657 18.6565 4.73455 18.7507 4.77044 18.8386C4.80632 18.9265 4.85938 19.0063 4.92651 19.0734C4.99364 19.1406 5.07349 19.1936 5.16138 19.2295C5.24928 19.2654 5.34345 19.2834 5.43838 19.2824C5.53331 19.2815 5.62709 19.2616 5.71424 19.2239C5.80139 19.1862 5.88014 19.1316 5.94589 19.0631L7.45942 17.5495C7.56253 17.4493 7.63296 17.3203 7.66147 17.1793C7.68998 17.0384 7.67525 16.8921 7.61921 16.7597C7.56317 16.6272 7.46842 16.5148 7.3474 16.4372C7.22637 16.3595 7.08471 16.3202 6.94097 16.3245ZM17.0381 16.3245C16.8962 16.3245 16.7575 16.3669 16.6397 16.4462C16.522 16.5255 16.4305 16.6381 16.3771 16.7696C16.3237 16.9011 16.3107 17.0456 16.3399 17.1845C16.369 17.3234 16.4389 17.4505 16.5406 17.5495L18.0541 19.0631C18.1199 19.1316 18.1986 19.1862 18.2858 19.2239C18.3729 19.2616 18.4667 19.2815 18.5616 19.2824C18.6566 19.2834 18.7507 19.2654 18.8386 19.2295C18.9265 19.1936 19.0064 19.1406 19.0735 19.0734C19.1406 19.0063 19.1937 18.9265 19.2296 18.8386C19.2654 18.7507 19.2834 18.6565 19.2825 18.5616C19.2815 18.4666 19.2616 18.3728 19.2239 18.2857C19.1863 18.1986 19.1316 18.1198 19.0631 18.054L17.5496 16.5405C17.4831 16.4721 17.4036 16.4178 17.3157 16.3807C17.2279 16.3436 17.1335 16.3245 17.0381 16.3245V16.3245ZM11.9889 18.4122C11.7998 18.4152 11.6197 18.493 11.488 18.6286C11.3564 18.7642 11.2839 18.9465 11.2864 19.1356V21.2763C11.2851 21.3708 11.3026 21.4647 11.3378 21.5524C11.3731 21.6402 11.4254 21.7201 11.4918 21.7874C11.5582 21.8547 11.6373 21.9082 11.7246 21.9447C11.8118 21.9812 11.9054 22 12 22C12.0946 22 12.1882 21.9812 12.2754 21.9447C12.3627 21.9082 12.4418 21.8547 12.5082 21.7874C12.5746 21.7201 12.6269 21.6402 12.6622 21.5524C12.6974 21.4647 12.7149 21.3708 12.7136 21.2763V19.1356C12.7149 19.0401 12.697 18.9453 12.661 18.8569C12.6251 18.7684 12.5717 18.6881 12.5041 18.6207C12.4365 18.5532 12.3561 18.5 12.2676 18.4642C12.1791 18.4284 12.0843 18.4107 11.9889 18.4122V18.4122Z" fill="white"/>
</svg>
