<svg width="24" height="24" viewBox="0 0 24 24" fill="none" xmlns="http://www.w3.org/2000/svg">
<path d="M8.5 22C10.433 22 12 20.5077 12 18.6667V15.3333H8.5C6.56698 15.3333 5 16.8258 5 18.6667C5 20.5077 6.56698 22 8.5 22Z" fill="white"/>
<path d="M5 12C5 10.159 6.56698 8.66669 8.5 8.66669H12V15.3334H8.5C6.56698 15.3334 5 13.8409 5 12V12Z" fill="white"/>
<path d="M5 5.33336C5 3.49238 6.56698 2 8.5 2H12V8.6667H8.5C6.56698 8.6667 5 7.17427 5 5.33336V5.33336Z" fill="white"/>
<path d="M12 2H15.5C17.433 2 19 3.49238 19 5.33336C19 7.17427 17.433 8.6667 15.5 8.6667H12V2V2Z" fill="white"/>
<path d="M19 12C19 13.8409 17.433 15.3334 15.5 15.3334C13.567 15.3334 12 13.8409 12 12C12 10.159 13.567 8.66669 15.5 8.66669C17.433 8.66669 19 10.159 19 12Z" fill="white"/>
</svg>
