<svg width="24" height="24" viewBox="0 0 24 24" fill="none" xmlns="http://www.w3.org/2000/svg">
<path d="M9.50894 17.4671C9.50894 17.4671 8.78353 17.9116 10.0252 18.062C11.5294 18.2428 12.2982 18.2168 13.9559 17.8863C13.9559 17.8863 14.3917 18.1742 15.0004 18.4236C11.2843 20.1016 6.59017 18.3264 9.50894 17.4671" fill="#374047"/>
<path d="M9.05475 15.2774C9.05475 15.2774 8.24113 15.912 9.48371 16.0474C11.0906 16.222 12.3596 16.2363 14.5554 15.7908C14.5554 15.7908 14.8591 16.1153 15.3366 16.2927C10.8437 17.6769 5.83938 16.4018 9.05475 15.2774" fill="#374047"/>
<path d="M12.8829 11.563C13.7986 12.6737 12.6423 13.6732 12.6423 13.6732C12.6423 13.6732 14.9673 12.4086 13.8996 10.8251C12.9023 9.3484 12.1376 8.61468 16.2776 6.0849C16.2776 6.0849 9.77909 7.79492 12.8829 11.563" fill="#374047"/>
<path d="M17.7977 19.0867C17.7977 19.0867 18.3345 19.5527 17.2065 19.9133C15.0615 20.5979 8.2789 20.8046 6.39472 19.9405C5.71741 19.6301 6.98756 19.1993 7.3871 19.1089C7.80379 19.0137 8.04191 19.0314 8.04191 19.0314C7.28867 18.4724 3.17327 20.1292 5.95149 20.6037C13.5281 21.8982 19.7629 20.0207 17.7977 19.0867" fill="#374047"/>
<path d="M9.85767 13.0087C9.85767 13.0087 6.4076 13.872 8.63591 14.1855C9.57677 14.3183 11.4524 14.2882 13.1994 14.134C14.6272 14.0071 16.0609 13.7373 16.0609 13.7373C16.0609 13.7373 15.5574 13.9645 15.1932 14.2265C11.6897 15.1973 4.92165 14.7457 6.87009 13.7527C8.51789 12.9135 9.85768 13.0087 9.85768 13.0087" fill="#374047"/>
<path d="M16.0468 16.6535C19.6082 14.7037 17.9616 12.8299 16.8122 13.0823C16.5305 13.1441 16.4049 13.1976 16.4049 13.1976C16.4049 13.1976 16.5095 13.025 16.7092 12.9503C18.983 12.1081 20.7317 15.4344 15.9752 16.7518C15.9752 16.7518 16.0303 16.6999 16.0468 16.6535" fill="#374047"/>
<path d="M13.8995 2C13.8995 2 15.8718 4.07879 12.0287 7.27539C8.94696 9.83961 11.326 11.3017 12.0275 12.9721C10.2286 11.2621 8.90843 9.75675 9.79409 8.35573C11.094 6.29915 14.6953 5.30204 13.8995 2" fill="#374047"/>
<path d="M10.2076 21.9371C13.6262 22.1677 18.8757 21.8092 19.0001 20.1049C19.0001 20.1049 18.7611 20.751 16.1748 21.2641C13.257 21.8426 9.65835 21.7751 7.52393 21.4043C7.52397 21.4043 7.96087 21.7853 10.2076 21.9371" fill="#374047"/>
</svg>
