<svg width="24" height="24" viewBox="0 0 24 24" fill="none" xmlns="http://www.w3.org/2000/svg">
<rect x="12" y="5.33334" width="6.75" height="13.8889" fill="white"/>
<path d="M4.67083 19.9821L3 2L21 2.00687L19.3432 19.9684L11.986 22L4.67084 19.9822L4.67083 19.9821ZM17.9883 19.0007L19.3853 3.59918H12.014L12.0702 20.5861L17.9883 19.0007H17.9883ZM11.3261 5.85724H9.53589L9.51483 15.0748L6.03979 14.1482L6.04681 16.2553L11.3261 17.6486V5.85724H11.3261Z" fill="white"/>
<path opacity="0.986" d="M6.04663 16.2553L6.0396 14.1482C6.0396 14.1482 8.25802 14.7591 9.51464 15.0748L9.5357 5.86411H11.3259V17.6486L6.04662 16.2553L6.04663 16.2553Z" fill="#374047"/>
<path d="M12.014 3.59232H19.3853L17.9883 18.9938L12.014 20.5793V3.59232H12.014ZM17.6092 16.4132L18.0936 10.6548L14.5132 11.046V7.97117L18.3323 7.95744L18.4867 5.85724L12.723 5.88469L12.8003 13.5305L16.2823 12.9471L16.2332 14.6493L12.723 15.5621L12.7581 17.6486L17.6092 16.4132V16.4132Z" fill="#374047"/>
</svg>
