<svg width="24" height="24" viewBox="0 0 24 24" fill="none" xmlns="http://www.w3.org/2000/svg">
<path d="M19.5 7C20.8812 7 22 5.88125 22 4.5C22 3.11875 20.8812 2 19.5 2C18.1187 2 17 3.11875 17 4.5C17 5.2025 17.2912 5.835 17.7575 6.28875L15.785 9.74C15.3825 9.59249 14.9537 9.5 14.5 9.5C13.5 9.5 12.5962 9.8975 11.9237 10.5362L6.80999 6.70124C6.93125 6.40749 7 6.08749 7 5.74999C7 4.36874 5.88125 3.24999 4.5 3.24999C3.11875 3.24999 2 4.36874 2 5.74999C2 7.13124 3.11875 8.24999 4.5 8.24999C5.09 8.24999 5.625 8.03749 6.0525 7.69624L11.18 11.5425C10.9138 12.0562 10.75 12.6312 10.75 13.25C10.75 13.6412 10.8275 14.0125 10.9388 14.3675L5.575 17.2513C5.2475 17.095 4.88625 17 4.5 17C3.11875 17 2 18.1187 2 19.5C2 20.8813 3.11875 22 4.5 22C5.88125 22 7 20.8813 7 19.5C7 18.9925 6.84625 18.5212 6.58624 18.1262L11.5025 15.4825C12.1862 16.3987 13.2688 17 14.5 17C15.1225 17 15.7012 16.8337 16.2188 16.565L17.44 18.0863C17.1638 18.4888 17 18.975 17 19.5C17 20.8813 18.1187 22 19.5 22C20.8813 22 22 20.8813 22 19.5C22 18.1187 20.8813 17 19.5 17C19.0988 17 18.725 17.1038 18.3888 17.2712L17.2213 15.8163C17.855 15.145 18.25 14.2462 18.25 13.25C18.25 12.0825 17.705 11.0525 16.8688 10.365L18.8475 6.90249C19.0563 6.95999 19.2725 7 19.5 7H19.5Z" fill="white"/>
</svg>
