<svg width="24" height="24" viewBox="0 0 24 24" fill="none" xmlns="http://www.w3.org/2000/svg">
<path d="M12 22C11.7205 22 11.4596 21.9265 11.2174 21.7979L8.73912 20.3463C8.36643 20.1442 8.55277 20.0707 8.66459 20.034C9.16769 19.8686 9.26086 19.8318 9.78261 19.5379C9.83849 19.5011 9.91302 19.5195 9.96895 19.5563L11.8696 20.6771C11.9441 20.7139 12.0373 20.7139 12.0932 20.6771L19.5279 16.4327C19.6025 16.396 19.6398 16.3225 19.6398 16.2306V7.76021C19.6398 7.66834 19.6025 7.59485 19.5279 7.55808L12.0932 3.3321C12.0186 3.29534 11.9255 3.29534 11.8696 3.3321L4.43481 7.55808C4.36028 7.59485 4.323 7.68668 4.323 7.76021V16.2306C4.323 16.3041 4.36028 16.396 4.43481 16.4327L6.46587 17.5903C7.56524 18.1415 8.25469 17.4984 8.25469 16.8553V8.49519C8.25469 8.38494 8.34786 8.27472 8.47828 8.27472H9.42859C9.54041 8.27472 9.65218 8.36659 9.65218 8.49519V16.8553C9.65218 18.3069 8.85093 19.1521 7.45343 19.1521C7.02486 19.1521 6.68946 19.1521 5.73914 18.6927L3.78261 17.5903C3.29815 17.3147 3 16.8002 3 16.249V7.77859C3 7.22739 3.29812 6.71291 3.78261 6.43729L11.2174 2.19293C11.6832 1.93569 12.3168 1.93569 12.7826 2.19293L20.2174 6.43729C20.7018 6.71291 21 7.22739 21 7.77859V16.249C21 16.8002 20.7019 17.3147 20.2174 17.5903L12.7826 21.8346C12.5404 21.9449 12.2609 22 12 22V22ZM14.2919 16.1755C11.031 16.1755 10.3602 14.7056 10.3602 13.4562C10.3602 13.3459 10.4534 13.2357 10.5838 13.2357H11.5528C11.6646 13.2357 11.7578 13.3092 11.7578 13.4194C11.9068 14.3932 12.3354 14.871 14.3106 14.871C15.8758 14.871 16.5466 14.5219 16.5466 13.6951C16.5466 13.2173 16.3603 12.8682 13.9193 12.6294C11.8882 12.4272 10.6211 11.9863 10.6211 10.3878C10.6211 8.89948 11.8882 8.01752 14.0124 8.01752C16.3975 8.01752 17.5714 8.82596 17.7205 10.5899C17.7205 10.645 17.7019 10.7001 17.6646 10.7552C17.6273 10.792 17.5715 10.8287 17.5156 10.8287H16.5466C16.4534 10.8287 16.3603 10.7552 16.3416 10.6633C16.118 9.65278 15.5404 9.32205 14.0124 9.32205C12.2981 9.32205 12.0932 9.91002 12.0932 10.351C12.0932 10.8839 12.3354 11.0492 14.646 11.3432C16.9379 11.6372 18.0186 12.0598 18.0186 13.6399C18 15.2569 16.6584 16.1756 14.2919 16.1756V16.1755Z" fill="white"/>
</svg>
