<svg width="24" height="24" viewBox="0 0 24 24" fill="none" xmlns="http://www.w3.org/2000/svg">
<path d="M21.1558 14.2952C18.6838 14.7871 18.5138 13.9798 18.5138 13.9798C21.1238 10.2442 22.215 5.50243 21.2734 4.3419C18.7046 1.17619 14.258 2.67338 14.1838 2.71218L14.16 2.71635C13.6715 2.61853 13.125 2.56033 12.5107 2.55063C11.3922 2.53299 10.5437 2.83349 9.89979 3.30444C9.89979 3.30444 1.96748 0.152447 2.33646 7.2686C2.41493 8.78247 4.58606 18.7234 7.17564 15.7208C8.12216 14.6228 9.03674 13.6945 9.03674 13.6945C9.49091 13.9855 10.0347 14.134 10.6047 14.0807L10.649 14.0444C10.6352 14.1807 10.6416 14.3141 10.6668 14.4719C9.99961 15.1908 10.1957 15.317 8.8621 15.5819C7.51262 15.8501 8.30535 16.3276 8.82295 16.4526C9.45043 16.6038 10.9021 16.8182 11.8829 15.4938L11.8438 15.645C12.1052 15.8469 12.2887 16.9585 12.258 17.9662C12.2272 18.9738 12.2067 19.6656 12.4126 20.206C12.6186 20.7464 12.8239 21.9622 14.5771 21.5999C16.0419 21.2971 16.8011 20.5124 16.9067 19.2035C16.9816 18.273 17.1513 18.4106 17.1619 17.5786L17.298 17.1848C17.4548 15.9234 17.3229 15.5164 18.2254 15.7057L18.4448 15.7243C19.1089 15.7534 19.9784 15.6212 20.4887 15.3925C21.5874 14.9007 22.2391 14.0794 21.1557 14.2952H21.1558" fill="white"/>
<path d="M10.364 7.94561C10.1412 7.91571 9.93946 7.94337 9.83739 8.01793C9.78004 8.05987 9.76224 8.10845 9.75742 8.14188C9.74463 8.23048 9.80896 8.32845 9.84853 8.37896C9.96041 8.52199 10.1238 8.62029 10.2856 8.64194C10.309 8.64515 10.3324 8.64659 10.3556 8.64659C10.6253 8.64659 10.8706 8.44399 10.8922 8.29446C10.9192 8.10717 10.6374 7.98234 10.364 7.9457L10.364 7.94561ZM17.7439 7.95156C17.7226 7.80476 17.4518 7.7629 17.1948 7.79738C16.9381 7.83186 16.6892 7.94362 16.71 8.09074C16.7266 8.20515 16.9408 8.40045 17.1943 8.40045C17.2158 8.40045 17.2374 8.3991 17.2592 8.39613C17.4284 8.37352 17.5526 8.26985 17.6116 8.21012C17.7014 8.11904 17.7534 8.01754 17.7439 7.95156Z" fill="#374047"/>
<path d="M21.9782 14.2393C21.884 13.9644 21.5806 13.876 21.0765 13.9763C19.5799 14.2743 19.044 14.0679 18.868 13.9429C20.0313 12.2336 20.9883 10.1673 21.5045 8.23951C21.7491 7.32632 21.8842 6.47823 21.8952 5.78697C21.9074 5.02827 21.7734 4.47073 21.4971 4.13015C20.3831 2.75716 18.7481 2.02067 16.769 2.00047C15.4084 1.98572 14.2588 2.32157 14.036 2.41601C13.5666 2.30345 13.055 2.23434 12.498 2.22552C11.4766 2.20956 10.5937 2.44543 9.86273 2.92624C9.5452 2.81223 8.72462 2.54052 7.72109 2.38458C5.98617 2.1152 4.60752 2.31932 3.62368 2.99159C2.44976 3.79382 1.9078 5.22783 2.01279 7.25368C2.04812 7.93525 2.45076 10.032 3.08614 12.04C3.92251 14.6828 4.8317 16.179 5.78826 16.4868C5.90022 16.5228 6.02931 16.5479 6.1717 16.5479C6.52064 16.5479 6.94847 16.3963 7.39359 15.8801C7.9365 15.2519 8.49811 14.6389 9.07772 14.042C9.45376 14.2367 9.86688 14.3454 10.2894 14.3563C10.2902 14.367 10.2913 14.3776 10.2923 14.3882C10.2196 14.4719 10.1483 14.5567 10.0787 14.6428C9.78592 15.0012 9.72499 15.0759 8.78264 15.263C8.51457 15.3164 7.80263 15.4579 7.79216 15.9393C7.78085 16.4652 8.63377 16.6861 8.73094 16.7095C9.06958 16.7913 9.39583 16.8316 9.70696 16.8316C10.4636 16.8316 11.1295 16.5917 11.6617 16.1276C11.6453 18.0026 11.7263 19.8501 11.9597 20.413C12.1509 20.8739 12.6179 22.0001 14.093 22C14.3094 22 14.5476 21.9757 14.8097 21.9215C16.3492 21.6032 17.0178 20.9469 17.2764 19.5C17.4148 18.7267 17.6522 16.8802 17.764 15.8897C17.9997 15.9607 18.3032 15.9931 18.6312 15.9931C19.3155 15.9931 20.1051 15.8528 20.6002 15.6312C21.1565 15.382 22.1603 14.7706 21.9782 14.2393L21.9782 14.2393ZM18.3121 7.54632C18.307 7.83872 18.2653 8.10418 18.2211 8.38126C18.1734 8.67927 18.1242 8.98738 18.1118 9.3614C18.0996 9.72539 18.1467 10.1038 18.1923 10.4698C18.2844 11.209 18.3789 11.97 18.0131 12.721C17.9523 12.6171 17.8982 12.5098 17.851 12.3995C17.8055 12.2932 17.7068 12.1225 17.57 11.8861C17.0381 10.966 15.7926 8.8114 16.4302 7.9322C16.6201 7.67052 17.1021 7.40145 18.3121 7.54632H18.3121ZM16.8455 2.59256C18.6188 2.63032 20.0216 3.27019 21.0147 4.49431C21.7764 5.43324 20.9376 9.70551 18.5094 13.3912C18.485 13.3613 18.4604 13.3314 18.4358 13.3017L18.405 13.2646C19.0325 12.2651 18.9098 11.2761 18.8006 10.3993C18.7557 10.0395 18.7133 9.69965 18.7241 9.3804C18.7353 9.04206 18.7816 8.75183 18.8265 8.47122C18.8816 8.12543 18.9377 7.76761 18.9223 7.3458C18.9338 7.30155 18.9385 7.24928 18.9324 7.18722C18.8929 6.78273 18.4142 5.57218 17.4383 4.47651C16.9045 3.8772 16.1261 3.20654 15.0632 2.75419C15.5204 2.66279 16.1455 2.57757 16.8455 2.59256H16.8455ZM6.92256 15.5023C6.43214 16.0711 6.0935 15.962 5.98212 15.9263C5.25647 15.6928 4.41445 14.2134 3.67208 11.8675C3.02971 9.83764 2.65434 7.79647 2.62458 7.2241C2.53081 5.41391 2.98574 4.15236 3.9768 3.4744C5.58969 2.37119 8.24145 3.03151 9.30699 3.36641C9.2917 3.381 9.27574 3.39463 9.2606 3.40946C7.51205 5.11269 7.55353 8.02272 7.55785 8.20063C7.55768 8.26925 7.56367 8.36642 7.57182 8.50007C7.60191 8.98954 7.65793 9.90049 7.50831 10.9321C7.36933 11.8907 7.67572 12.829 8.34875 13.5064C8.41783 13.5758 8.49042 13.6419 8.56628 13.7043C8.2667 14.0138 7.61562 14.6981 6.92255 15.5023L6.92256 15.5023ZM8.79105 13.0976C8.2486 12.5516 8.00223 11.7922 8.11503 11.0139C8.27296 9.92414 8.21469 8.97504 8.18335 8.46512C8.17895 8.39377 8.17504 8.33123 8.17279 8.28192C8.42823 8.06344 9.61197 7.45171 10.4562 7.63828C10.8413 7.72335 11.0761 7.97637 11.1737 8.41157C11.6787 10.6647 11.2405 11.6038 10.8884 12.3585C10.8158 12.514 10.7472 12.6609 10.6887 12.8129L10.6433 12.9305C10.5285 13.2276 10.4216 13.5039 10.3553 13.7662C9.77863 13.7646 9.21764 13.527 8.79105 13.0975V13.0976V13.0976ZM8.87958 16.1362C8.71117 16.0957 8.55973 16.0252 8.47087 15.9668C8.54509 15.9331 8.67718 15.8872 8.90626 15.8417C10.0149 15.6216 10.1861 15.4662 10.56 15.0083C10.6457 14.9033 10.7428 14.7843 10.8774 14.6394L10.8776 14.6392C11.078 14.4228 11.1697 14.4595 11.3359 14.526C11.4707 14.5797 11.6019 14.7427 11.6551 14.9219C11.6803 15.0066 11.7086 15.1673 11.616 15.2923C10.835 16.3471 9.69693 16.3336 8.87958 16.1363V16.1362ZM14.6814 21.3438C13.3252 21.6241 12.845 20.9566 12.5285 20.1936C12.3243 19.701 12.2239 17.4797 12.2951 15.0266C12.2961 14.9939 12.2912 14.9624 12.2819 14.9328C12.2736 14.8742 12.2609 14.8162 12.244 14.7594C12.1381 14.4025 11.88 14.1039 11.5704 13.9801C11.4474 13.931 11.2216 13.8408 10.9503 13.9077C11.0082 13.6778 11.1085 13.4181 11.2173 13.1369L11.2629 13.0186C11.3143 12.8853 11.3788 12.7472 11.447 12.6009C11.8155 11.8114 12.3201 10.7299 11.7724 8.28673C11.5673 7.37161 10.8822 6.92472 9.84364 7.02855C9.22106 7.09068 8.65142 7.33298 8.36731 7.47191C8.30621 7.50173 8.25036 7.5306 8.19816 7.55866C8.27746 6.63665 8.57703 4.91353 9.69768 3.82331C10.4033 3.13702 11.343 2.79804 12.4879 2.81632C14.7438 2.85191 16.1905 3.96859 17.0069 4.89918C17.7104 5.70101 18.0914 6.50876 18.2434 6.94444C17.1001 6.83228 16.3225 7.04995 15.9283 7.59353C15.0707 8.77595 16.3975 11.0709 17.0351 12.1738C17.152 12.376 17.2529 12.5507 17.2847 12.6249C17.4923 13.1103 17.7611 13.4343 17.9574 13.6709C18.0176 13.7433 18.0759 13.8136 18.1203 13.8751C17.774 13.9714 17.152 14.1938 17.2087 15.3059C17.163 15.864 16.8379 18.4765 16.6727 19.3996C16.4547 20.6191 15.9895 21.0733 14.6814 21.3438V21.3438L14.6814 21.3438ZM20.3423 15.0953C19.9882 15.2538 19.3957 15.3727 18.8328 15.3982C18.211 15.4263 17.8945 15.3311 17.82 15.2724C17.7851 14.5794 18.0525 14.507 18.3355 14.4304C18.38 14.4183 18.4234 14.4066 18.4653 14.3924C18.4913 14.4129 18.5198 14.4332 18.5511 14.4531C19.0508 14.7712 19.9421 14.8055 21.2005 14.555L21.2143 14.5523C21.0445 14.7054 20.7541 14.9108 20.3423 15.0953H20.3423Z" fill="#374047"/>
</svg>
