<svg width="24" height="24" viewBox="0 0 24 24" fill="none" xmlns="http://www.w3.org/2000/svg">
<path d="M18.444 8.48238C18.2365 8.40212 18.0215 8.32617 17.8002 8.25435C17.8366 8.08746 17.87 7.92273 17.8997 7.76079C18.387 5.10184 18.0684 2.95978 16.9803 2.25452C15.9369 1.57826 14.2306 2.28336 12.5073 3.96901C12.3415 4.1311 12.1754 4.30272 12.0093 4.48256C11.8986 4.36357 11.7881 4.24857 11.6779 4.13858C9.87178 2.33617 8.06146 1.57662 6.97443 2.28392C5.93207 2.96213 5.62338 4.97588 6.06208 7.49578C6.10444 7.73918 6.15396 7.98774 6.20996 8.24045C5.95375 8.3222 5.70639 8.40935 5.46973 8.50205C3.35229 9.3318 2 10.6322 2 11.9811C2 13.3742 3.45169 14.7715 5.65716 15.6188C5.83121 15.6856 6.0118 15.7488 6.19792 15.8089C6.13751 16.0822 6.08496 16.35 6.04085 16.6113C5.62256 19.0874 5.94922 21.0536 6.9888 21.7275C8.0626 22.4235 9.86473 21.7081 11.6195 19.9841C11.7582 19.8478 11.8974 19.7033 12.0369 19.5518C12.2176 19.7474 12.3981 19.9325 12.5776 20.1062C14.2773 21.7502 15.9561 22.414 16.9947 21.7382C18.0674 21.0402 18.4161 18.9281 17.9635 16.3583C17.9289 16.1621 17.8887 15.9616 17.8435 15.7575C17.97 15.7155 18.0943 15.672 18.2154 15.6269C20.5082 14.7731 22 13.3928 22 11.981C22 10.6273 20.6041 9.31814 18.444 8.48236L18.444 8.48238ZM17.9467 14.7154C17.8374 14.7561 17.7251 14.7954 17.6108 14.8336C17.3577 13.9329 17.0161 12.9752 16.598 11.9857C16.9969 11.0198 17.3254 10.0744 17.5714 9.17959C17.776 9.24613 17.9745 9.31632 18.1659 9.39037C20.0167 10.1065 21.1456 11.1652 21.1456 11.9811C21.1456 12.85 19.9264 13.9781 17.9467 14.7154L17.9467 14.7154ZM17.1253 16.5449C17.3254 17.6812 17.354 18.7085 17.2214 19.5117C17.1023 20.2333 16.8628 20.7145 16.5666 20.9072C15.9363 21.3172 14.5884 20.7842 13.1348 19.3783C12.9681 19.2171 12.8003 19.045 12.6319 18.8629C13.1954 18.1701 13.7587 17.3648 14.3084 16.4704C15.2752 16.374 16.1887 16.2163 17.017 16.0011C17.0578 16.1861 17.0941 16.3675 17.1253 16.5449H17.1253ZM8.81846 20.8363C8.20265 21.0808 7.71219 21.0878 7.41572 20.8956C6.78486 20.4866 6.52259 18.908 6.88034 16.7904C6.92131 16.5479 6.97008 16.2987 7.0263 16.0441C7.84559 16.2477 8.75235 16.3942 9.72152 16.4826C10.2749 17.3577 10.8544 18.1622 11.4384 18.8666C11.3108 19.005 11.1837 19.1368 11.0573 19.261C10.2814 20.0234 9.50376 20.5643 8.81846 20.8363H8.81846ZM5.93349 14.7101C4.95827 14.3355 4.1529 13.8485 3.60085 13.3172C3.1048 12.8397 2.85435 12.3657 2.85435 11.9811C2.85435 11.1625 3.94011 10.1185 5.75096 9.40887C5.97068 9.32276 6.20069 9.24162 6.43939 9.16539C6.68965 10.0804 7.01795 11.0371 7.41415 12.0044C7.01283 12.9862 6.67986 13.9581 6.42714 14.8838C6.25698 14.8288 6.09212 14.771 5.93348 14.7101L5.93349 14.7101ZM6.90055 7.31138C6.52469 5.15238 6.77432 3.52371 7.40248 3.11503C8.07157 2.67966 9.55114 3.30041 11.1105 4.8567C11.2102 4.95617 11.3103 5.06028 11.4106 5.168C10.8296 5.8693 10.2554 6.6677 9.70688 7.53774C8.76627 7.63573 7.86588 7.79314 7.03804 8.00392C6.986 7.7686 6.9399 7.53741 6.90056 7.31139L6.90055 7.31138ZM15.5276 9.70568C15.3297 9.32148 15.1266 8.94637 14.9195 8.58149C15.5576 8.67215 16.169 8.79252 16.7431 8.9398C16.5707 9.56072 16.3559 10.2099 16.103 10.8754C15.9216 10.4883 15.7297 10.098 15.5276 9.70568ZM12.0095 5.85428C12.4036 6.33415 12.7983 6.86992 13.1865 7.45122C12.7953 7.43045 12.3993 7.41965 12 7.41965C11.6045 7.41965 11.2114 7.43022 10.8226 7.45062C11.2112 6.87472 11.6093 6.33968 12.0095 5.85428H12.0095ZM8.4689 9.71233C8.27121 10.0976 8.08289 10.4858 7.90432 10.8747C7.65552 10.2115 7.44266 9.55936 7.26879 8.92963C7.83942 8.78611 8.44793 8.66876 9.082 8.57981C8.87195 8.94805 8.66711 9.32592 8.4689 9.71224V9.71232V9.71233ZM9.10025 15.4508C8.44515 15.3687 7.82749 15.2574 7.257 15.1178C7.43365 14.4768 7.6512 13.8108 7.90528 13.1333C8.08431 13.5219 8.27338 13.9103 8.47227 14.2964H8.47231C8.67491 14.6898 8.8848 15.0751 9.10025 15.4508V15.4508ZM12.0332 18.1756C11.6282 17.6845 11.2243 17.1413 10.8298 16.557C11.2128 16.5739 11.6032 16.5825 12 16.5825C12.4077 16.5825 12.8106 16.5722 13.2073 16.5523C12.8178 17.1472 12.4246 17.6912 12.0332 18.1756V18.1756ZM16.1112 13.0987C16.3785 13.7836 16.6038 14.4462 16.7827 15.0762C16.2029 15.2249 15.5768 15.3446 14.9171 15.4336C15.1247 15.0638 15.3297 14.6823 15.5311 14.2898C15.7348 13.8927 15.9283 13.495 16.1112 13.0987V13.0987ZM14.791 13.81C14.4783 14.4193 14.1574 15.0009 13.8315 15.5499C13.238 15.5976 12.6249 15.6222 12 15.6222C11.3776 15.6222 10.7722 15.6005 10.1892 15.5579C9.85024 15.0017 9.52229 14.4184 9.21164 13.8153H9.21172C8.90189 13.2138 8.61674 12.6073 8.35835 12.0041C8.61667 11.3996 8.90107 10.7923 9.20912 10.192L9.20905 10.1921C9.51791 9.59008 9.84297 9.00958 10.1788 8.45685C10.7736 8.40632 11.3835 8.37995 12 8.37995H12C12.6192 8.37995 13.2299 8.40652 13.8245 8.4575C14.1552 9.00619 14.4781 9.58481 14.7882 10.1869C15.1018 10.7957 15.3898 11.3989 15.6503 11.9905C15.3906 12.5922 15.1032 13.2015 14.791 13.81H14.791ZM16.5535 3.08646C17.2232 3.52055 17.4837 5.27127 17.0629 7.56698C17.036 7.71347 17.0058 7.86267 16.973 8.01388C16.1432 7.79869 15.2422 7.63856 14.2989 7.53908C13.7493 6.65949 13.1798 5.85984 12.6082 5.16754C12.7619 5.00137 12.9153 4.84292 13.0682 4.69339C14.5447 3.24914 15.9247 2.67893 16.5535 3.08645V3.08646ZM12 9.97378C12.9863 9.97378 13.7859 10.8725 13.7859 11.9811C13.7859 13.0897 12.9863 13.9884 12 13.9884C11.0137 13.9884 10.2141 13.0897 10.2141 11.9811C10.2141 10.8725 11.0137 9.97378 12 9.97378Z" fill="white"/>
</svg>
