<svg width="24" height="24" viewBox="0 0 24 24" fill="none" xmlns="http://www.w3.org/2000/svg">
<path d="M12 22C17.5228 22 22 17.5228 22 12C22 6.47715 17.5228 2 12 2C6.47715 2 2 6.47715 2 12C2 17.5228 6.47715 22 12 22Z" fill="white"/>
<path d="M7.01105 10C5.58489 10 5 10.2304 5 11.3338C5 12.0461 5.30446 12.4791 6.14574 12.7444L7.25943 13.0866C7.62799 13.1913 7.78024 13.2751 7.78024 13.6173C7.78024 14.0084 7.60396 14.0852 6.96298 14.0852C6.61045 14.0852 6.16176 14.0712 5.13621 14.0503L5.0641 14.8184C5.91339 14.9791 6.61045 15 6.96298 15C8.46929 15 9.01411 14.7067 9.01411 13.6103C9.01411 12.905 8.72567 12.4651 7.84434 12.1927L6.79473 11.8785C6.37809 11.7598 6.21785 11.669 6.21785 11.3338C6.21785 10.9218 6.42617 10.8939 7.01907 10.8939C7.60395 10.8939 8.28501 10.9008 8.74971 10.9148L8.82983 10.1885C8.2129 10.0349 7.55588 10 7.01105 10ZM11.434 14.0782C11.1696 14.0782 11.0574 13.9735 11.0574 13.7151V12.7863H13.2608V12.0182H11.0574V11.2849C11.0574 11.0335 11.1696 10.9288 11.434 10.9288H13.5572L13.6133 10.1397C12.8602 10.0698 11.9067 10.0698 11.0494 10.0698C10.3123 10.0698 9.83958 10.4469 9.83157 11.0405V13.9595C9.83958 14.5531 10.3123 14.9302 11.0494 14.9302C11.9067 14.9302 12.8602 14.9302 13.6133 14.8603L13.5572 14.0782H11.434ZM16.6284 10C14.8817 10 14.2648 10.5656 14.2648 12.5C14.2648 14.4344 14.8817 15 16.6284 15C18.3751 15 19 14.4344 19 12.5C19 10.5656 18.3751 10 16.6284 10ZM16.6284 10.8589C17.4617 10.8589 17.71 11.2221 17.71 12.5C17.71 13.7779 17.4617 14.1411 16.6284 14.1411C15.7951 14.1411 15.5468 13.7779 15.5468 12.5C15.5468 11.2221 15.7951 10.8589 16.6284 10.8589Z" fill="#374047"/>
</svg>
