<svg width="24" height="24" viewBox="0 0 24 24" fill="none" xmlns="http://www.w3.org/2000/svg">
<path d="M2 12V22H12H22V12V2H12H2V12Z" fill="#374047"/>
<path d="M5.89527 12.0171L5.88892 12.8322H7.19094H8.49297V16.5125V20.1928H9.41392H10.3349V16.5125V12.8322H11.6369H12.9389V12.0329C12.9389 11.5906 12.9294 11.221 12.9167 11.2115C12.9072 11.1989 11.3225 11.1926 9.40121 11.1958L5.90479 11.2052L5.89527 12.0171V12.0171Z" fill="white"/>
<path d="M17.8123 11.1821C18.3178 11.3085 18.7032 11.5328 19.057 11.8992C19.2402 12.0951 19.5119 12.4521 19.534 12.5374C19.5403 12.5627 18.6748 13.1439 18.1503 13.4693C18.1314 13.4819 18.0556 13.3998 17.9703 13.2734C17.7144 12.9007 17.4459 12.7396 17.0352 12.7111C16.4318 12.6701 16.0432 12.986 16.0464 13.5135C16.0464 13.6683 16.0685 13.7599 16.1317 13.8863C16.2644 14.1612 16.5108 14.3254 17.2848 14.6603C18.7095 15.2732 19.3192 15.6775 19.6983 16.2525C20.1216 16.8938 20.2164 17.9173 19.9289 18.6786C19.613 19.5063 18.8296 20.0686 17.727 20.255C17.3858 20.315 16.5771 20.3056 16.2107 20.2392C15.4114 20.0971 14.6532 19.7022 14.1857 19.1841C14.0025 18.9819 13.6455 18.4543 13.6676 18.4164C13.6771 18.4038 13.7592 18.3532 13.8508 18.2995C13.9393 18.249 14.2741 18.0563 14.5901 17.8731L15.1618 17.5414L15.2819 17.7183C15.4493 17.9742 15.8158 18.3248 16.0369 18.4417C16.6719 18.7766 17.5438 18.7292 17.9734 18.3438C18.1567 18.1763 18.2325 18.0026 18.2325 17.7467C18.2325 17.5161 18.204 17.415 18.084 17.2413C17.9292 17.0201 17.6133 16.8337 16.7161 16.4452C15.6894 16.0029 15.2471 15.7281 14.8428 15.2921C14.609 15.0394 14.3879 14.635 14.2963 14.297C14.2204 14.0158 14.2015 13.3114 14.2615 13.027C14.4732 12.0351 15.2219 11.3433 16.3023 11.1379C16.6529 11.0716 17.468 11.0968 17.8123 11.1821H17.8123Z" fill="white"/>
</svg>
