<svg width="24" height="24" viewBox="0 0 24 24" fill="none" xmlns="http://www.w3.org/2000/svg">
<path d="M22 0H2C0.895431 0 0 0.89543 0 2V22C0 23.1046 0.89543 24 2 24H22C23.1046 24 24 23.1046 24 22V2C24 0.895431 23.1046 0 22 0Z" fill="#6BC38B"/>
<path fill-rule="evenodd" clip-rule="evenodd" d="M12 4C7.5816 4 4 7.67194 4 12.2029C4 15.8265 6.292 18.9015 9.4712 19.9857C9.8712 20.0611 10.0168 19.808 10.0168 19.5902C10.0168 19.3961 10.0104 18.8794 10.0064 18.1956C7.7808 18.691 7.3112 17.0958 7.3112 17.0958C6.948 16.1475 6.4232 15.8953 6.4232 15.8953C5.6968 15.3876 6.4784 15.3974 6.4784 15.3974C7.2808 15.4548 7.7032 16.2425 7.7032 16.2425C8.4168 17.4955 9.576 17.1335 10.0312 16.9239C10.1048 16.394 10.3112 16.0329 10.54 15.8282C8.764 15.621 6.896 14.9167 6.896 11.7738C6.896 10.8788 7.208 10.1458 7.7192 9.57261C7.6368 9.36543 7.3624 8.53097 7.7976 7.40252C7.7976 7.40252 8.4696 7.18142 9.9976 8.24272C10.6502 8.06052 11.3236 7.96772 12 7.96675C12.68 7.97002 13.364 8.06092 14.0032 8.24272C15.5304 7.18142 16.2008 7.40171 16.2008 7.40171C16.6376 8.53097 16.3624 9.36543 16.2808 9.57261C16.7928 10.1458 17.1032 10.8788 17.1032 11.7738C17.1032 14.9249 15.232 15.6185 13.4504 15.8216C13.7376 16.0747 13.9928 16.575 13.9928 17.3407C13.9928 18.4364 13.9832 19.3216 13.9832 19.5902C13.9832 19.8097 14.1272 20.0652 14.5336 19.9849C16.1266 19.438 17.5115 18.3924 18.4924 16.996C19.4733 15.5995 20.0007 13.9229 20 12.2029C20 7.67194 16.4176 4 12 4Z" fill="#374047"/>
</svg>
