<svg width="24" height="24" viewBox="0 0 24 24" fill="none" xmlns="http://www.w3.org/2000/svg">
<path d="M22 0H2C0.895431 0 0 0.89543 0 2V22C0 23.1046 0.89543 24 2 24H22C23.1046 24 24 23.1046 24 22V2C24 0.895431 23.1046 0 22 0Z" fill="#374047"/>
<path d="M19.8406 8.37351C19.8406 8.37351 19.6844 7.2952 19.2031 6.82172C18.5938 6.19856 17.9125 6.1955 17.6 6.15884C15.3625 6 12.0031 6 12.0031 6H11.9969C11.9969 6 8.6375 6 6.4 6.15884C6.0875 6.1955 5.40625 6.19856 4.79688 6.82172C4.31563 7.2952 4.1625 8.37351 4.1625 8.37351C4.1625 8.37351 4 9.64121 4 10.9059V12.0911C4 13.3557 4.15937 14.6234 4.15937 14.6234C4.15937 14.6234 4.31562 15.7017 4.79375 16.1752C5.40313 16.7984 6.20313 16.777 6.55938 16.8442C7.84063 16.9633 12 17 12 17C12 17 15.3625 16.9939 17.6 16.8381C17.9125 16.8014 18.5938 16.7984 19.2031 16.1752C19.6844 15.7017 19.8406 14.6234 19.8406 14.6234C19.8406 14.6234 20 13.3588 20 12.0911V10.9059C20 9.64121 19.8406 8.37351 19.8406 8.37351ZM10.3469 13.5299V9.13413L14.6687 11.3396L10.3469 13.5299Z" fill="white"/>
</svg>
