<svg width="64" height="32" viewBox="0 0 64 32" fill="none" xmlns="http://www.w3.org/2000/svg">
<path d="M48.9345 26C51.5368 25.9972 54.0449 25.053 55.9709 23.3511C55.745 23.3511 55.519 23.3511 55.2931 23.3511C53.2228 23.349 51.1937 22.7884 49.4315 21.7316C47.6693 20.6748 46.243 19.1633 45.3112 17.3651C44.3795 15.567 43.9788 13.5526 44.1538 11.5462C44.3287 9.53974 45.0725 7.61984 46.3023 6C43.8462 6.62564 41.7083 8.09966 40.288 10.1466C38.8678 12.1936 38.2623 14.6736 38.5847 17.1231C38.9072 19.5726 40.1355 21.8242 42.0402 23.4571C43.9449 25.09 46.3956 25.9926 48.9345 25.9961V26Z" fill="#374047"/>
<path d="M51.749 9.18491C51.7056 9.17691 51.6646 9.15961 51.629 9.13427C51.5933 9.10892 51.5639 9.07617 51.5429 9.03839L50.8491 7.8161L50.1594 9.03839C50.1384 9.07617 50.109 9.10892 50.0733 9.13427C50.0376 9.15961 49.9966 9.17691 49.9532 9.18491L48.546 9.4471L49.5251 10.465C49.5561 10.4956 49.5794 10.5327 49.5932 10.5736C49.607 10.6144 49.6108 10.6577 49.6044 10.7002L49.426 12.0806L50.7223 11.4907C50.7617 11.4716 50.8051 11.4617 50.8491 11.4617C50.8932 11.4617 50.9366 11.4716 50.976 11.4907L52.2762 12.0806L52.0979 10.7002C52.0916 10.658 52.095 10.615 52.1081 10.5743C52.1211 10.5336 52.1434 10.4963 52.1732 10.465L53.1563 9.4471L51.749 9.18491ZM57.9054 14.8645L57.7904 13.9699C57.7846 13.9275 57.7887 13.8843 57.8025 13.8435C57.8162 13.8028 57.8392 13.7656 57.8697 13.7347L58.5 13.0793L57.5922 12.9173C57.5491 12.9086 57.5084 12.891 57.4729 12.8657C57.4373 12.8404 57.4077 12.8081 57.3861 12.7708L56.9421 11.9996L56.4941 12.7708C56.4737 12.8083 56.445 12.8409 56.4101 12.8663C56.3751 12.8916 56.3347 12.909 56.292 12.9173L55.3842 13.0831L56.0264 13.7347C56.0562 13.7661 56.0787 13.8033 56.0924 13.8439C56.1061 13.8845 56.1106 13.9275 56.1056 13.9699L55.9907 14.8645L56.8271 14.4789C56.8669 14.4612 56.9102 14.4521 56.954 14.4521C56.9977 14.4521 57.041 14.4612 57.0808 14.4789L57.9054 14.8645ZM50.199 17.2589C50.2286 17.2903 50.2507 17.3277 50.2637 17.3683C50.2767 17.409 50.2804 17.452 50.2743 17.4941L50.1594 18.3848L50.9958 17.9993C51.0355 17.9812 51.0788 17.9719 51.1227 17.9723C51.1665 17.9715 51.21 17.9808 51.2495 17.9993L52.086 18.3848L51.971 17.4941C51.9658 17.4517 51.9702 17.4086 51.9839 17.368C51.9976 17.3274 52.0202 17.2901 52.0503 17.2589L52.6846 16.6035L51.7768 16.4338C51.7338 16.426 51.6931 16.4092 51.6576 16.3845C51.622 16.3599 51.5923 16.328 51.5706 16.2911L51.1227 15.5007L50.6787 16.2911C50.657 16.328 50.6274 16.3599 50.5918 16.3845C50.5562 16.4092 50.5155 16.426 50.4725 16.4338L49.5648 16.6035L50.199 17.2589Z" fill="#374047"/>
<path d="M16.4889 6.00009C16.2998 6.00304 16.1197 6.08086 15.988 6.21647C15.8564 6.35208 15.7839 6.5344 15.7864 6.72341V8.86413C15.7851 8.95868 15.8026 9.05256 15.8378 9.14031C15.8731 9.22806 15.9254 9.30792 15.9918 9.37526C16.0582 9.4426 16.1373 9.49607 16.2246 9.53257C16.3118 9.56907 16.4054 9.58786 16.5 9.58786C16.5946 9.58786 16.6882 9.56907 16.7754 9.53257C16.8627 9.49607 16.9418 9.4426 17.0082 9.37526C17.0746 9.30792 17.1269 9.22806 17.1622 9.14031C17.1974 9.05256 17.2149 8.95868 17.2136 8.86413V6.72341C17.2149 6.62795 17.197 6.53319 17.161 6.44475C17.1251 6.35631 17.0717 6.27598 17.0041 6.20854C16.9365 6.14109 16.8561 6.08789 16.7676 6.05208C16.6791 6.01628 16.5843 5.9986 16.4889 6.00009ZM9.93302 8.72058C9.79119 8.72089 9.65267 8.76346 9.53514 8.84286C9.41761 8.92225 9.3264 9.03486 9.27316 9.16633C9.21992 9.29779 9.20705 9.44213 9.23621 9.58094C9.26537 9.71974 9.33523 9.84671 9.43687 9.94563L10.9504 11.4592C11.0162 11.5277 11.0949 11.5823 11.1821 11.62C11.2692 11.6577 11.363 11.6776 11.4579 11.6785C11.5528 11.6795 11.647 11.6615 11.7349 11.6256C11.8228 11.5897 11.9027 11.5367 11.9698 11.4696C12.0369 11.4024 12.09 11.3226 12.1259 11.2347C12.1617 11.1468 12.1797 11.0526 12.1788 10.9577C12.1778 10.8627 12.1579 10.769 12.1202 10.6818C12.0826 10.5947 12.0279 10.5159 11.9594 10.4502L10.4459 8.9366C10.3792 8.86808 10.2995 8.81364 10.2114 8.77653C10.1233 8.73943 10.0286 8.7204 9.93302 8.72058V8.72058ZM23.0447 8.72058C22.8593 8.7261 22.6834 8.80358 22.5541 8.9366L21.0406 10.4502C20.9721 10.5159 20.9174 10.5947 20.8798 10.6818C20.8421 10.769 20.8222 10.8627 20.8212 10.9577C20.8203 11.0526 20.8383 11.1468 20.8741 11.2347C20.91 11.3226 20.9631 11.4024 21.0302 11.4695C21.0974 11.5367 21.1772 11.5897 21.2651 11.6256C21.353 11.6615 21.4472 11.6795 21.5421 11.6785C21.637 11.6776 21.7308 11.6577 21.8179 11.62C21.9051 11.5823 21.9838 11.5277 22.0496 11.4592L23.5631 9.94563C23.6662 9.8454 23.7367 9.71636 23.7652 9.57542C23.7937 9.43447 23.779 9.2882 23.7229 9.15577C23.6669 9.02334 23.5721 8.91094 23.4511 8.83328C23.3301 8.75562 23.1884 8.71634 23.0447 8.72058ZM16.5 11.0048C13.7414 11.0048 11.5051 13.2412 11.5051 15.9998C11.5051 18.7585 13.7414 20.9948 16.5 20.9948C19.2586 20.9948 21.4949 18.7585 21.4949 15.9998C21.4949 13.2412 19.2586 11.0048 16.5 11.0048ZM7.22372 15.2863C7.12917 15.2849 7.03529 15.3024 6.94754 15.3377C6.8598 15.3729 6.77994 15.4253 6.7126 15.4917C6.64526 15.5581 6.59179 15.6372 6.55529 15.7244C6.51879 15.8117 6.5 15.9053 6.5 15.9998C6.5 16.0944 6.51879 16.188 6.55529 16.2753C6.59179 16.3625 6.64526 16.4416 6.7126 16.508C6.77994 16.5744 6.8598 16.6268 6.94754 16.662C7.03529 16.6973 7.12917 16.7147 7.22372 16.7134H9.3644C9.45896 16.7147 9.55284 16.6973 9.64058 16.662C9.72833 16.6268 9.80819 16.5744 9.87553 16.508C9.94286 16.4416 9.99634 16.3625 10.0328 16.2753C10.0693 16.188 10.0881 16.0944 10.0881 15.9998C10.0881 15.9053 10.0693 15.8117 10.0328 15.7244C9.99634 15.6372 9.94286 15.5581 9.87553 15.4917C9.80819 15.4253 9.72833 15.3729 9.64058 15.3377C9.55284 15.3024 9.45896 15.2849 9.3644 15.2863H7.22372ZM23.6356 15.2863C23.541 15.2849 23.4472 15.3024 23.3594 15.3377C23.2717 15.3729 23.1918 15.4253 23.1245 15.4917C23.0571 15.5581 23.0037 15.6372 22.9672 15.7244C22.9307 15.8117 22.9119 15.9053 22.9119 15.9998C22.9119 16.0944 22.9307 16.188 22.9672 16.2753C23.0037 16.3625 23.0571 16.4416 23.1245 16.508C23.1918 16.5744 23.2717 16.6268 23.3594 16.662C23.4472 16.6973 23.541 16.7147 23.6356 16.7134H25.7763C25.8708 16.7147 25.9647 16.6973 26.0525 16.662C26.1402 16.6268 26.2201 16.5744 26.2874 16.508C26.3547 16.4416 26.4082 16.3625 26.4447 16.2753C26.4812 16.188 26.5 16.0944 26.5 15.9998C26.5 15.9053 26.4812 15.8117 26.4447 15.7244C26.4082 15.6372 26.3547 15.5581 26.2874 15.4917C26.2201 15.4253 26.1402 15.3729 26.0525 15.3377C25.9647 15.3024 25.8708 15.2849 25.7763 15.2863H23.6356ZM11.441 20.3245C11.2556 20.33 11.0796 20.4075 10.9504 20.5405L9.43687 22.054C9.36839 22.1198 9.31372 22.1986 9.27606 22.2857C9.23839 22.3728 9.2185 22.4666 9.21753 22.5616C9.21657 22.6565 9.23455 22.7507 9.27044 22.8386C9.30632 22.9265 9.35938 23.0063 9.42651 23.0734C9.49364 23.1406 9.57349 23.1936 9.66138 23.2295C9.74928 23.2654 9.84345 23.2834 9.93838 23.2824C10.0333 23.2815 10.1271 23.2616 10.2142 23.2239C10.3014 23.1862 10.3801 23.1316 10.4459 23.0631L11.9594 21.5495C12.0625 21.4493 12.133 21.3203 12.1615 21.1793C12.19 21.0384 12.1753 20.8921 12.1192 20.7597C12.0632 20.6272 11.9684 20.5148 11.8474 20.4372C11.7264 20.3595 11.5847 20.3202 11.441 20.3245ZM21.5381 20.3245C21.3962 20.3245 21.2575 20.3669 21.1397 20.4462C21.022 20.5255 20.9305 20.6381 20.8771 20.7696C20.8237 20.9011 20.8107 21.0456 20.8399 21.1845C20.869 21.3234 20.9389 21.4505 21.0406 21.5495L22.5541 23.0631C22.6199 23.1316 22.6986 23.1862 22.7858 23.2239C22.8729 23.2616 22.9667 23.2815 23.0616 23.2824C23.1566 23.2834 23.2507 23.2654 23.3386 23.2295C23.4265 23.1936 23.5064 23.1406 23.5735 23.0734C23.6406 23.0063 23.6937 22.9265 23.7296 22.8386C23.7654 22.7507 23.7834 22.6565 23.7825 22.5616C23.7815 22.4666 23.7616 22.3728 23.7239 22.2857C23.6863 22.1986 23.6316 22.1198 23.5631 22.054L22.0496 20.5405C21.9831 20.4721 21.9036 20.4178 21.8157 20.3807C21.7279 20.3436 21.6335 20.3245 21.5381 20.3245V20.3245ZM16.4889 22.4122C16.2998 22.4152 16.1197 22.493 15.988 22.6286C15.8564 22.7642 15.7839 22.9465 15.7864 23.1356V25.2763C15.7851 25.3708 15.8026 25.4647 15.8378 25.5524C15.8731 25.6402 15.9254 25.7201 15.9918 25.7874C16.0582 25.8547 16.1373 25.9082 16.2246 25.9447C16.3118 25.9812 16.4054 26 16.5 26C16.5946 26 16.6882 25.9812 16.7754 25.9447C16.8627 25.9082 16.9418 25.8547 17.0082 25.7874C17.0746 25.7201 17.1269 25.6402 17.1622 25.5524C17.1974 25.4647 17.2149 25.3708 17.2136 25.2763V23.1356C17.2149 23.0401 17.197 22.9453 17.161 22.8569C17.1251 22.7684 17.0717 22.6881 17.0041 22.6207C16.9365 22.5532 16.8561 22.5 16.7676 22.4642C16.6791 22.4284 16.5843 22.4107 16.4889 22.4122V22.4122Z" fill="#374047"/>
</svg>
