<svg width="24" height="24" viewBox="0 0 24 24" fill="none" xmlns="http://www.w3.org/2000/svg">
<path d="M12 22C17.5228 22 22 17.5228 22 12C22 6.47715 17.5228 2 12 2C6.47715 2 2 6.47715 2 12C2 17.5228 6.47715 22 12 22Z" fill="white"/>
<path fill-rule="evenodd" clip-rule="evenodd" d="M13.5 6.52941C13.5 7.37409 12.8284 8.05882 12 8.05882C11.1716 8.05882 10.5 7.37409 10.5 6.52941C10.5 5.68474 11.1716 5 12 5C12.8284 5 13.5 5.68474 13.5 6.52941ZM6 9.61213C6 9.17659 6.34627 8.82352 6.77341 8.82352H17.2266C17.6538 8.82352 18 9.17659 18 9.61213C18 10.0286 17.6825 10.3732 17.2749 10.3991L14.25 10.5919V17.2035C14.25 17.6434 13.9002 18 13.4688 18C13.0625 18 12.724 17.6825 12.6903 17.2697L12.375 13.4118H11.625L11.3097 17.2697C11.276 17.6825 10.9375 18 10.5312 18C10.0998 18 9.75002 17.6434 9.75002 17.2035V10.5919L6.72517 10.3991C6.31755 10.3732 6 10.0286 6 9.61213Z" fill="#374047"/>
</svg>
