<svg width="24" height="24" viewBox="0 0 24 24" fill="none" xmlns="http://www.w3.org/2000/svg">
<path d="M21.9465 2H2V21.9465H21.9465V2Z" fill="#061E26"/>
<path d="M20.9873 3.01266V20.9873H3.01265V3.01266H20.9873V3.01266ZM22 2H2V22H22V2V2Z" fill="#26C9FF"/>
<path d="M11.8986 9.97464C11.8986 10.886 11.5948 11.5949 10.9619 12.0759C10.329 12.5569 9.44294 12.8101 8.27838 12.8101H7.21509V16.3544H6.15179V7.34174H8.50623C10.7847 7.34174 11.8986 8.22781 11.8986 9.97465V9.97464ZM7.21509 11.924H8.1518C9.0885 11.924 9.74673 11.7721 10.1771 11.4683C10.5822 11.1645 10.81 10.6835 10.81 10.0253C10.81 9.41768 10.6075 8.9873 10.2278 8.6835C9.848 8.37971 9.21509 8.25312 8.40496 8.25312H7.24041V11.924H7.21509Z" fill="#D9F5FF" stroke="#D9F5FF" stroke-width="2" stroke-miterlimit="10"/>
<path d="M17.9999 14.5316C17.9999 15.1645 17.7721 15.6456 17.2911 16C16.8101 16.3544 16.1518 16.5063 15.3164 16.5063C14.4303 16.5063 13.7215 16.3544 13.2151 16.0759V15.1139C13.5442 15.2911 13.8987 15.4177 14.2531 15.4936C14.6328 15.5949 14.9873 15.6455 15.3417 15.6455C15.8733 15.6455 16.2784 15.5696 16.5822 15.3924C16.8607 15.2152 17.0126 14.962 17.0126 14.6076C17.0126 14.3544 16.886 14.1266 16.6582 13.924C16.4303 13.7468 15.9746 13.5189 15.3164 13.2658C14.6835 13.0379 14.2278 12.8354 13.9746 12.6582C13.7214 12.481 13.5189 12.2785 13.3923 12.0506C13.2657 11.8228 13.1898 11.5696 13.1898 11.2658C13.1898 10.7088 13.4176 10.2784 13.8733 9.94934C14.329 9.62022 14.9366 9.46832 15.7214 9.46832C16.4556 9.46832 17.1645 9.62022 17.848 9.92402L17.4936 10.7595C16.81 10.481 16.2024 10.3291 15.6455 10.3291C15.1645 10.3291 14.7847 10.405 14.5569 10.5569C14.3037 10.7088 14.1771 10.9114 14.1771 11.1898C14.1771 11.367 14.2278 11.5189 14.3037 11.6455C14.405 11.7721 14.5569 11.8987 14.7594 12C14.9619 12.1265 15.367 12.2784 15.9493 12.5063C16.7594 12.8101 17.291 13.0886 17.5695 13.3924C17.8733 13.7215 17.9999 14.0759 17.9999 14.5316V14.5316L17.9999 14.5316Z" fill="#D9F5FF" stroke="#D9F5FF" stroke-width="2" stroke-miterlimit="10"/>
</svg>
