<svg width="24" height="24" viewBox="0 0 24 24" fill="none" xmlns="http://www.w3.org/2000/svg">
<path d="M2 9.35291L6.5 6L11 9.35291V14.7529L6.5 18L2 14.7529V9.35291Z" fill="#6BC38B"/>
<path d="M7.28403 9.85999H6.36603V12.35C6.36603 13.112 6.18003 13.34 5.62803 13.34C5.06403 13.34 4.88403 13.112 4.88403 12.35V9.85999H3.97203V12.35C3.97203 13.616 4.42203 14.078 5.67003 14.078C6.85203 14.078 7.28403 13.616 7.28403 12.35V9.85999ZM8.99802 9.85999H8.08602V14H8.99802V9.85999Z" fill="#374047"/>
<path d="M13 9.35291L17.5 6L22 9.35291V14.7529L17.5 18L13 14.7529V9.35291Z" fill="#6BC38B"/>
<path d="M17.2381 9.85999H16.3201V12.35C16.3201 13.112 16.1341 13.34 15.5821 13.34C15.0181 13.34 14.8381 13.112 14.8381 12.35V9.85999H13.9261V12.35C13.9261 13.616 14.3761 14.078 15.6241 14.078C16.8061 14.078 17.2381 13.616 17.2381 12.35V9.85999ZM20.4581 14H21.4061L20.3261 11.876L21.3221 9.85999H20.3861L19.5881 11.57H19.4981L18.7001 9.85999H17.7641L18.7601 11.876L17.6801 14H18.6221L19.5041 12.158H19.5761L20.4581 14Z" fill="#374047"/>
</svg>
